<svg width="160" height="44" viewBox="0 0 160 44" fill="none" xmlns="http://www.w3.org/2000/svg">
<g clip-path="url(#clip0_296_8626)">
<path d="M144.436 0H14.7671C8.88207 0 4.11133 4.8116 4.11133 10.747V33.253C4.11133 39.1884 8.88207 44 14.7671 44H144.436C150.321 44 155.092 39.1884 155.092 33.253V10.747C155.092 4.8116 150.321 0 144.436 0Z" fill="url(#paint0_linear_296_8626)"/>
<path d="M154 32.934V10.439C154 4.6737 149.366 0 143.65 0L13.9919 0C8.27551 0 3.64148 4.6737 3.64148 10.439V32.934C3.64148 38.6993 8.27551 43.373 13.9919 43.373L143.65 43.373C149.366 43.373 154 38.6993 154 32.934Z" fill="url(#paint1_linear_296_8626)"/>
<path d="M152.758 33.2532V10.7472C152.758 6.11798 149.037 2.36523 144.447 2.36523L14.7783 2.36523C10.1883 2.36523 6.46744 6.11798 6.46744 10.7472V33.2532C6.46744 37.8825 10.1883 41.6352 14.7783 41.6352L144.447 41.6352C149.037 41.6352 152.758 37.8825 152.758 33.2532Z" fill="url(#paint2_linear_296_8626)"/>
<path d="M151.743 33.2527V10.7467C151.743 6.68243 148.476 3.3877 144.447 3.3877L14.7779 3.3877C10.7482 3.3877 7.48141 6.68243 7.48141 10.7467V33.2527C7.48141 37.317 10.7482 40.6117 14.7779 40.6117L144.447 40.6117C148.476 40.6117 151.743 37.317 151.743 33.2527Z" fill="#3C3C3C"/>
<path d="M151.58 33.242V10.747C151.58 6.76778 148.382 3.54199 144.436 3.54199L14.7784 3.54199C10.833 3.54199 7.63463 6.76778 7.63463 10.747V33.242C7.63463 37.2212 10.833 40.447 14.7784 40.447L144.436 40.447C148.382 40.447 151.58 37.2212 151.58 33.242Z" fill="url(#paint3_linear_296_8626)"/>
<path d="M146.944 36.718H12.2696C11.3745 36.7165 10.4822 36.6169 9.6084 36.421C10.5272 37.4714 11.6668 38.3019 12.9442 38.8518C14.2215 39.4018 15.6045 39.6574 16.9922 39.6H142.211C143.602 39.6543 144.988 39.3929 146.266 38.8351C147.544 38.2773 148.682 37.4373 149.595 36.377C148.726 36.5871 147.838 36.7014 146.944 36.718Z" fill="white" fill-opacity="0.4"/>
<path d="M142.212 4.50977H16.9928C12.4229 4.50977 8.72559 7.31477 8.72559 10.7468V19.2498C32.0112 21.0098 58.5252 21.9998 86.5006 21.9998C109.132 21.9998 130.738 21.3508 150.501 20.1738V10.7468C150.512 7.31477 146.781 4.50977 142.212 4.50977Z" fill="white" fill-opacity="0.4"/>
<path d="M14.7675 43.4498C12.0879 43.4469 9.5191 42.3713 7.62539 40.4593C5.73167 38.5473 4.66797 35.9553 4.66797 33.2528V10.7468C4.66797 8.0443 5.73167 5.45232 7.62539 3.54032C9.5191 1.62833 12.0879 0.55272 14.7675 0.549805H144.436C147.117 0.552716 149.687 1.62798 151.582 3.53965C153.478 5.45133 154.544 8.04329 154.547 10.7468V33.2528C154.544 35.9563 153.478 38.5483 151.582 40.46C149.687 42.3716 147.117 43.4469 144.436 43.4498H14.7675ZM14.7675 2.1228C12.5006 2.12572 10.3273 3.03525 8.72436 4.65193C7.1214 6.26861 6.21959 8.46047 6.21671 10.7468V33.2528C6.21959 35.5391 7.1214 37.731 8.72436 39.3477C10.3273 40.9644 12.5006 41.8739 14.7675 41.8768H144.436C146.703 41.8739 148.876 40.9644 150.479 39.3477C152.082 37.731 152.984 35.5391 152.987 33.2528V10.7468C152.984 8.46047 152.082 6.26861 150.479 4.65193C148.876 3.03525 146.703 2.12572 144.436 2.1228H14.7675Z" fill="url(#paint4_linear_296_8626)"/>
<path d="M5.9873 10.4277C6.07145 8.14427 7.02539 5.98153 8.65059 4.38954C10.2758 2.79755 12.4471 1.89892 14.7126 1.88068H144.436C146.766 1.88359 149.001 2.81862 150.649 4.48069C152.297 6.14275 153.224 8.39616 153.227 10.7467V10.9997L154.317 11.1207V10.7467C154.3 8.12638 153.26 5.61831 151.423 3.76544C149.586 1.91256 147.099 0.863976 144.501 0.84668H14.7671C12.1951 0.863228 9.73086 1.89057 7.89794 3.71043C6.06502 5.53029 5.0079 7.99923 4.95117 10.5927L5.9873 10.4277Z" fill="url(#paint5_linear_296_8626)"/>
<path d="M153.227 24.3542V33.2532C153.224 35.6037 152.297 37.8571 150.649 39.5192C149.001 41.1813 146.766 42.1163 144.436 42.1192H14.7671C12.4366 42.1163 10.2023 41.1813 8.55434 39.5192C6.90638 37.8571 5.97929 35.6037 5.9764 33.2532V24.9372L4.88574 24.8162V33.2532C4.88856 35.883 5.92192 38.4052 7.7606 40.2699C9.59928 42.1346 12.0942 43.1908 14.7017 43.2082H144.436C147.034 43.1909 149.521 42.1423 151.358 40.2894C153.195 38.4366 154.235 35.9285 154.252 33.3082V24.2002L153.227 24.3542Z" fill="url(#paint6_linear_296_8626)"/>
<path d="M11.3717 13.8128C11.8333 9.02995 9.67546 4.90411 6.55195 4.59744C3.42844 4.29078 0.522111 7.91942 0.0604754 12.7022C-0.401161 17.4851 1.75671 21.6109 4.88022 21.9176C8.00373 22.2242 10.9101 18.5956 11.3717 13.8128Z" fill="url(#paint7_radial_296_8626)"/>
<path d="M5.45316 7.17188C5.69311 7.17188 6.0094 9.69087 6.173 12.9139C6.3366 16.1369 6.24935 18.8099 6.0094 18.8649C5.76946 18.9199 5.45316 16.3569 5.24594 13.1229C5.03871 9.88888 5.16959 7.22688 5.45316 7.17188Z" fill="url(#paint8_radial_296_8626)"/>
<path d="M4.06836 11.1103C4.15561 10.9453 4.9518 11.6713 5.84614 12.7273C6.48278 13.3475 6.98102 14.0975 7.30762 14.9273C7.22037 15.0923 6.42419 14.3663 5.52985 13.3103C4.8977 12.6863 4.40015 11.9373 4.06836 11.1103V11.1103Z" fill="white"/>
<path d="M1.7998 13.9366C1.7998 13.5736 3.51214 12.8366 5.66074 12.3636C7.80935 11.8906 9.5544 11.7476 9.57622 12.1106C9.59803 12.4736 7.86388 13.2106 5.71528 13.6836C3.56668 14.1566 1.82162 14.2996 1.7998 13.9366Z" fill="url(#paint9_radial_296_8626)"/>
<path d="M3.6977 16.7526C3.54501 16.5876 4.33029 14.7726 5.43185 12.7156C6.53342 10.6586 7.53683 9.1186 7.63499 9.2836C7.73315 9.4486 7.00241 11.2636 5.90084 13.3316C4.79927 15.3996 3.83949 16.9286 3.6977 16.7526Z" fill="url(#paint10_radial_296_8626)"/>
<path d="M152.692 22.0664C152.78 21.9014 153.576 22.6274 154.47 23.6834C155.101 24.3059 155.596 25.0555 155.921 25.8834C155.834 26.0484 155.048 25.3224 154.154 24.2664C153.517 23.6461 153.019 22.8961 152.692 22.0664V22.0664Z" fill="url(#paint11_radial_296_8626)"/>
<path d="M159.934 24.4941C160.404 19.6267 158.209 15.4279 155.032 15.1159C151.854 14.804 148.898 18.4969 148.428 23.3644C147.958 28.2319 150.153 32.4306 153.33 32.7426C156.508 33.0546 159.465 29.3616 159.934 24.4941Z" fill="url(#paint12_radial_296_8626)"/>
<path d="M154.001 18.1278C154.241 18.0728 154.557 20.6468 154.71 23.8808C154.863 27.1148 154.797 29.7768 154.557 29.8318C154.317 29.8868 153.99 27.3128 153.838 24.0788C153.685 20.8448 153.783 18.1938 154.001 18.1278Z" fill="url(#paint13_radial_296_8626)"/>
<path d="M150.392 24.893C150.392 24.53 152.093 23.793 154.242 23.32C156.39 22.847 158.146 22.704 158.146 23.1C158.146 23.496 156.434 24.2 154.285 24.673C152.137 25.146 150.403 25.3 150.392 24.893Z" fill="url(#paint14_radial_296_8626)"/>
<path d="M153.118 28.0615C153.168 26.5846 153.452 25.1252 153.958 23.7385C154.601 21.5385 155.256 19.7675 155.43 19.8995C155.381 21.3764 155.097 22.8358 154.591 24.2225C153.958 26.4775 153.293 28.1935 153.118 28.0615Z" fill="url(#paint15_radial_296_8626)"/>
<path d="M36.0508 25.4424H40.4053V27.0898H34V17.1367H36.0508V25.4424Z" fill="white"/>
<path d="M48.2762 22.7764H44.3387V25.4424H48.9598V27.0898H42.2879V17.1367H48.9461V18.7979H44.3387V21.1699H48.2762V22.7764Z" fill="white"/>
<path d="M56.482 25.0391H52.8863L52.2027 27.0898H50.0221L53.7271 17.1367H55.6275L59.3531 27.0898H57.1725L56.482 25.0391ZM53.44 23.3779H55.9283L54.6773 19.6523L53.44 23.3779Z" fill="white"/>
<path d="M64.6674 23.4463H63.0336V27.0898H60.9828V17.1367H64.6811C65.8568 17.1367 66.7637 17.3988 67.4018 17.9229C68.0398 18.4469 68.3588 19.1875 68.3588 20.1445C68.3588 20.8236 68.2107 21.391 67.9145 21.8467C67.6228 22.2979 67.1784 22.6579 66.5814 22.9268L68.7348 26.9941V27.0898H66.5336L64.6674 23.4463ZM63.0336 21.7852H64.6879C65.2029 21.7852 65.6016 21.6553 65.8842 21.3955C66.1667 21.1312 66.308 20.7689 66.308 20.3086C66.308 19.8392 66.1736 19.4701 65.9047 19.2012C65.6404 18.9323 65.2325 18.7979 64.6811 18.7979H63.0336V21.7852Z" fill="white"/>
<path d="M78.718 27.0898H76.6672L72.675 20.541V27.0898H70.6242V17.1367H72.675L76.674 23.6992V17.1367H78.718V27.0898Z" fill="white"/>
<path d="M88.075 17.1367L90.6316 24.3555L93.1746 17.1367H95.868V27.0898H93.8104V24.3691L94.0154 19.6729L91.3289 27.0898H89.9207L87.241 19.6797L87.4461 24.3691V27.0898H85.3953V17.1367H88.075Z" fill="white"/>
<path d="M106.535 22.3389C106.535 23.3187 106.362 24.1777 106.015 24.916C105.669 25.6543 105.172 26.224 104.525 26.625C103.882 27.026 103.144 27.2266 102.31 27.2266C101.485 27.2266 100.749 27.0283 100.102 26.6318C99.455 26.2354 98.9537 25.6702 98.5982 24.9365C98.2428 24.1982 98.0628 23.3506 98.0582 22.3936V21.9014C98.0582 20.9215 98.2337 20.0602 98.5846 19.3174C98.94 18.57 99.4391 17.998 100.082 17.6016C100.729 17.2005 101.467 17 102.296 17C103.126 17 103.862 17.2005 104.504 17.6016C105.152 17.998 105.651 18.57 106.002 19.3174C106.357 20.0602 106.535 20.9193 106.535 21.8945V22.3389ZM104.457 21.8877C104.457 20.8441 104.27 20.0511 103.896 19.5088C103.522 18.9665 102.989 18.6953 102.296 18.6953C101.608 18.6953 101.077 18.9642 100.704 19.502C100.33 20.0352 100.141 20.819 100.136 21.8535V22.3389C100.136 23.3551 100.323 24.1436 100.697 24.7041C101.071 25.2646 101.608 25.5449 102.31 25.5449C102.998 25.5449 103.527 25.276 103.896 24.7383C104.265 24.196 104.452 23.4076 104.457 22.373V21.8877Z" fill="white"/>
<path d="M112.41 23.4463H110.776V27.0898H108.725V17.1367H112.423C113.599 17.1367 114.506 17.3988 115.144 17.9229C115.782 18.4469 116.101 19.1875 116.101 20.1445C116.101 20.8236 115.953 21.391 115.657 21.8467C115.365 22.2979 114.921 22.6579 114.324 22.9268L116.477 26.9941V27.0898H114.276L112.41 23.4463ZM110.776 21.7852H112.43C112.945 21.7852 113.344 21.6553 113.626 21.3955C113.909 21.1312 114.05 20.7689 114.05 20.3086C114.05 19.8392 113.916 19.4701 113.647 19.2012C113.383 18.9323 112.975 18.7979 112.423 18.7979H110.776V21.7852Z" fill="white"/>
<path d="M124.355 22.7764H120.417V25.4424H125.038V27.0898H118.366V17.1367H125.025V18.7979H120.417V21.1699H124.355V22.7764Z" fill="white"/>
</g>
<defs>
<linearGradient id="paint0_linear_296_8626" x1="79.6069" y1="44" x2="79.6069" y2="0" gradientUnits="userSpaceOnUse">
<stop stop-color="#363636"/>
<stop offset="1" stop-color="#D6D6D6"/>
</linearGradient>
<linearGradient id="paint1_linear_296_8626" x1="27.3524" y1="65.241" x2="131.002" y2="-20.9867" gradientUnits="userSpaceOnUse">
<stop stop-color="#363636"/>
<stop offset="0.23" stop-color="#D6D6D6"/>
<stop offset="0.49" stop-color="#141414"/>
<stop offset="0.77" stop-color="#D6D6D6"/>
<stop offset="0.97" stop-color="#6B6B6A"/>
</linearGradient>
<linearGradient id="paint2_linear_296_8626" x1="79.6072" y1="41.6352" x2="79.6072" y2="2.36523" gradientUnits="userSpaceOnUse">
<stop stop-color="#D6D6D6"/>
<stop offset="1" stop-color="#363636"/>
</linearGradient>
<linearGradient id="paint3_linear_296_8626" x1="79.6074" y1="40.447" x2="79.6074" y2="3.55299" gradientUnits="userSpaceOnUse">
<stop stop-color="#710000"/>
<stop offset="0.05" stop-color="#850000"/>
<stop offset="0.16" stop-color="#A90000"/>
<stop offset="0.26" stop-color="#C60000"/>
<stop offset="0.37" stop-color="#DA0000"/>
<stop offset="0.47" stop-color="#E60000"/>
<stop offset="0.58" stop-color="#EA0000"/>
<stop offset="0.67" stop-color="#E70000"/>
<stop offset="0.74" stop-color="#DC0000"/>
<stop offset="0.81" stop-color="#CB0000"/>
<stop offset="0.88" stop-color="#B30000"/>
<stop offset="0.94" stop-color="#940000"/>
<stop offset="1" stop-color="#710000"/>
</linearGradient>
<linearGradient id="paint4_linear_296_8626" x1="79.6073" y1="43.4498" x2="79.6073" y2="0.549805" gradientUnits="userSpaceOnUse">
<stop offset="0.03" stop-color="#6B6B6A"/>
<stop offset="0.31"/>
<stop offset="0.66"/>
<stop offset="0.77" stop-color="#D6D6D6"/>
<stop offset="1" stop-color="#878787"/>
</linearGradient>
<linearGradient id="paint5_linear_296_8626" x1="79.6069" y1="11.1427" x2="79.6069" y2="0.791679" gradientUnits="userSpaceOnUse">
<stop offset="0.26" stop-color="white"/>
<stop offset="1" stop-color="#525252"/>
</linearGradient>
<linearGradient id="paint6_linear_296_8626" x1="79.6069" y1="43.2082" x2="79.6069" y2="24.2222" gradientUnits="userSpaceOnUse">
<stop/>
<stop offset="0.17" stop-color="#515151"/>
<stop offset="0.55" stop-color="white"/>
<stop offset="1" stop-color="#5C5C5C"/>
</linearGradient>
<radialGradient id="paint7_radial_296_8626" cx="0" cy="0" r="1" gradientUnits="userSpaceOnUse" gradientTransform="translate(5.71609 13.2575) rotate(5.6073) scale(5.6828 8.7003)">
<stop stop-color="white" stop-opacity="0.4"/>
<stop offset="1" stop-color="white" stop-opacity="0"/>
</radialGradient>
<radialGradient id="paint8_radial_296_8626" cx="0" cy="0" r="1" gradientUnits="userSpaceOnUse" gradientTransform="translate(5.70067 13.0188) rotate(90) scale(5.84693 0.556135)">
<stop stop-color="white"/>
<stop offset="1" stop-color="white" stop-opacity="0"/>
</radialGradient>
<radialGradient id="paint9_radial_296_8626" cx="0" cy="0" r="1" gradientUnits="userSpaceOnUse" gradientTransform="translate(5.68811 13.0236) rotate(90) scale(1.1173 3.88831)">
<stop stop-color="white"/>
<stop offset="1" stop-color="white" stop-opacity="0"/>
</radialGradient>
<radialGradient id="paint10_radial_296_8626" cx="0" cy="0" r="1" gradientUnits="userSpaceOnUse" gradientTransform="translate(5.66126 13.0189) rotate(90) scale(3.74745 1.98255)">
<stop stop-color="white"/>
<stop offset="1" stop-color="white" stop-opacity="0"/>
</radialGradient>
<radialGradient id="paint11_radial_296_8626" cx="0" cy="0" r="1" gradientUnits="userSpaceOnUse" gradientTransform="translate(154.307 23.9749) rotate(90) scale(1.93188 1.61419)">
<stop stop-color="white"/>
<stop offset="1" stop-color="white" stop-opacity="0"/>
</radialGradient>
<radialGradient id="paint12_radial_296_8626" cx="0" cy="0" r="1" gradientUnits="userSpaceOnUse" gradientTransform="translate(154.181 23.9293) rotate(5.60731) scale(5.78097 8.85428)">
<stop stop-color="white" stop-opacity="0.5"/>
<stop offset="1" stop-color="white" stop-opacity="0"/>
</radialGradient>
<radialGradient id="paint13_radial_296_8626" cx="0" cy="0" r="1" gradientUnits="userSpaceOnUse" gradientTransform="translate(154.278 23.9798) rotate(90) scale(5.85287 0.514297)">
<stop stop-color="white"/>
<stop offset="1" stop-color="white" stop-opacity="0"/>
</radialGradient>
<radialGradient id="paint14_radial_296_8626" cx="0" cy="0" r="1" gradientUnits="userSpaceOnUse" gradientTransform="translate(154.269 23.9989) rotate(90) scale(1.12874 3.87731)">
<stop stop-color="white"/>
<stop offset="1" stop-color="white" stop-opacity="0"/>
</radialGradient>
<radialGradient id="paint15_radial_296_8626" cx="0" cy="0" r="1" gradientUnits="userSpaceOnUse" gradientTransform="translate(154.274 23.9806) rotate(90) scale(4.08803 1.15609)">
<stop stop-color="white"/>
<stop offset="1" stop-color="white" stop-opacity="0"/>
</radialGradient>
<clipPath id="clip0_296_8626">
<rect width="160" height="44" fill="white"/>
</clipPath>
</defs>
</svg>
