<svg width="236" height="64" viewBox="0 0 236 64" fill="none" xmlns="http://www.w3.org/2000/svg">
<g clip-path="url(#clip0_324_6116)">
<path d="M212.641 0H22.1897C13.5461 0 6.53906 6.99869 6.53906 15.632V48.368C6.53906 57.0013 13.5461 64 22.1897 64H212.641C221.284 64 228.291 57.0013 228.291 48.368V15.632C228.291 6.99869 221.284 0 212.641 0Z" fill="url(#paint0_linear_324_6116)"/>
<path d="M228 47.904V15.184C228 6.7981 221.194 0 212.798 0L22.363 0C13.9671 0 7.16087 6.7981 7.16087 15.184V47.904C7.16087 56.2899 13.9671 63.088 22.363 63.088L212.798 63.088C221.194 63.088 228 56.2899 228 47.904Z" fill="url(#paint1_linear_324_6116)"/>
<path d="M224.863 48.3684V15.6324C224.863 8.89897 219.398 3.44043 212.657 3.44043L22.2058 3.44043C15.4643 3.44043 9.99927 8.89897 9.99927 15.6324V48.3684C9.99927 55.1019 15.4643 60.5604 22.2058 60.5604L212.657 60.5604C219.398 60.5604 224.863 55.1019 224.863 48.3684Z" fill="url(#paint2_linear_324_6116)"/>
<path d="M223.373 48.3682V15.6322C223.373 9.72056 218.575 4.92822 212.656 4.92822L22.2054 4.92822C16.2866 4.92822 11.4886 9.72056 11.4886 15.6322V48.3682C11.4886 54.2799 16.2866 59.0722 22.2054 59.0722L212.656 59.0722C218.575 59.0722 223.373 54.2799 223.373 48.3682Z" fill="#3C3C3C"/>
<path d="M223.133 48.3519V15.6319C223.133 9.84391 218.435 5.15186 212.64 5.15186L22.2054 5.15186C16.4106 5.15186 11.7129 9.84391 11.7129 15.6319V48.3519C11.7129 54.1398 16.4106 58.8319 22.2054 58.8319L212.64 58.8319C218.435 58.8319 223.133 54.1398 223.133 48.3519Z" fill="url(#paint3_linear_324_6116)"/>
<path d="M216.326 53.4081H18.5219C17.2072 53.4059 15.8967 53.2611 14.6133 52.9761C15.9628 54.504 17.6366 55.712 19.5127 56.5119C21.3888 57.3118 23.42 57.6836 25.4582 57.6001H209.373C211.417 57.6792 213.452 57.299 215.329 56.4876C217.206 55.6762 218.877 54.4544 220.218 52.9121C218.943 53.2177 217.637 53.384 216.326 53.4081Z" fill="white" fill-opacity="0.4"/>
<path d="M209.372 6.55957H25.4569C18.7449 6.55957 13.3145 10.6396 13.3145 15.6316V27.9996C47.5152 30.5596 86.4576 31.9996 127.547 31.9996C160.786 31.9996 192.52 31.0556 221.547 29.3436V15.6316C221.563 10.6396 216.084 6.55957 209.372 6.55957Z" fill="white" fill-opacity="0.4"/>
<path d="M22.1891 63.1998C18.2535 63.1956 14.4806 61.631 11.6992 58.85C8.91778 56.0689 7.35547 52.2987 7.35547 48.3678V15.6318C7.35547 11.7009 8.91778 7.93073 11.6992 5.14965C14.4806 2.36857 18.2535 0.804045 22.1891 0.799805H212.64C216.577 0.80404 220.352 2.36805 223.136 5.14867C225.92 7.9293 227.486 11.6994 227.49 15.6318V48.3678C227.486 52.3002 225.92 56.0703 223.136 58.8509C220.352 61.6316 216.577 63.1956 212.64 63.1998H22.1891ZM22.1891 3.0878C18.8596 3.09204 15.6676 4.41499 13.3133 6.76653C10.959 9.11807 9.63442 12.3062 9.63018 15.6318V48.3678C9.63442 51.6934 10.959 54.8815 13.3133 57.2331C15.6676 59.5846 18.8596 60.9076 22.1891 60.9118H212.64C215.97 60.9076 219.162 59.5846 221.516 57.2331C223.87 54.8815 225.195 51.6934 225.199 48.3678V15.6318C225.195 12.3062 223.87 9.11807 221.516 6.76653C219.162 4.41499 215.97 3.09204 212.64 3.0878H22.1891Z" fill="url(#paint4_linear_324_6116)"/>
<path d="M9.29525 15.1679C9.41885 11.8466 10.8199 8.70081 13.207 6.38518C15.594 4.06956 18.783 2.76247 22.1105 2.73593H212.642C216.065 2.74017 219.346 4.10021 221.767 6.51776C224.187 8.93531 225.549 12.213 225.553 15.6319V15.9999L227.155 16.1759V15.6319C227.13 11.8206 225.603 8.17249 222.904 5.4774C220.206 2.78231 216.554 1.25709 212.738 1.23193H22.1906C18.413 1.256 14.7936 2.75032 12.1015 5.39739C9.40941 8.04445 7.85675 11.6356 7.77344 15.4079L9.29525 15.1679Z" fill="url(#paint5_linear_324_6116)"/>
<path d="M225.551 35.4242V48.3682C225.547 51.7871 224.185 55.0648 221.765 57.4824C219.345 59.8999 216.063 61.26 212.64 61.2642H22.1891C18.7661 61.26 15.4845 59.8999 13.064 57.4824C10.6436 55.0648 9.28193 51.7871 9.27769 48.3682V36.2722L7.67578 36.0962V48.3682C7.67992 52.1934 9.19767 55.862 11.8982 58.5743C14.5988 61.2866 18.2632 62.8229 22.093 62.8482H212.64C216.456 62.823 220.108 61.2978 222.807 58.6027C225.505 55.9076 227.032 52.2595 227.057 48.4482V35.2002L225.551 35.4242Z" fill="url(#paint6_linear_324_6116)"/>
<path d="M17.2024 20.0911C17.8804 13.1343 14.711 7.13307 10.1234 6.68701C5.53571 6.24096 1.26703 11.519 0.589006 18.4758C-0.0890216 25.4326 3.08035 31.4339 7.66801 31.8799C12.2557 32.326 16.5243 27.048 17.2024 20.0911Z" fill="url(#paint7_radial_324_6116)"/>
<path d="M8.50995 10.4316C8.86237 10.4316 9.32692 14.0956 9.56721 18.7836C9.80749 23.4716 9.67934 27.3596 9.32692 27.4396C8.9745 27.5196 8.50995 23.7916 8.20558 19.0876C7.90122 14.3836 8.09345 10.5116 8.50995 10.4316Z" fill="url(#paint8_radial_324_6116)"/>
<path d="M6.47461 16.16C6.60276 15.92 7.77216 16.976 9.08572 18.512C10.0208 19.4142 10.7526 20.5051 11.2323 21.712C11.1041 21.952 9.93473 20.896 8.62117 19.36C7.6927 18.4523 6.96192 17.3629 6.47461 16.16V16.16Z" fill="white"/>
<path d="M3.14258 20.272C3.14258 19.744 5.65757 18.672 8.81333 17.984C11.9691 17.296 14.5321 17.088 14.5642 17.616C14.5962 18.144 12.0492 19.216 8.89343 19.904C5.73767 20.592 3.17462 20.8 3.14258 20.272Z" fill="url(#paint9_radial_324_6116)"/>
<path d="M5.93024 24.3679C5.70597 24.1279 6.85935 21.4879 8.47727 18.4959C10.0952 15.5039 11.569 13.2639 11.7131 13.5039C11.8573 13.7439 10.784 16.3839 9.16609 19.3919C7.54817 22.3999 6.13849 24.6239 5.93024 24.3679Z" fill="url(#paint10_radial_324_6116)"/>
<path d="M224.768 32.096C224.896 31.856 226.065 32.912 227.379 34.448C228.306 35.3536 229.032 36.4439 229.509 37.648C229.381 37.888 228.228 36.832 226.914 35.296C225.979 34.3938 225.247 33.3029 224.768 32.096V32.096Z" fill="url(#paint11_radial_324_6116)"/>
<path d="M235.404 35.6266C236.094 28.5466 232.87 22.4393 228.203 21.9856C223.536 21.5318 219.193 26.9034 218.503 33.9833C217.813 41.0633 221.037 47.1706 225.704 47.6243C230.371 48.0781 234.714 42.7065 235.404 35.6266Z" fill="url(#paint12_radial_324_6116)"/>
<path d="M226.689 26.368C227.041 26.288 227.506 30.032 227.73 34.736C227.954 39.44 227.858 43.312 227.506 43.392C227.153 43.472 226.673 39.728 226.448 35.024C226.224 30.32 226.368 26.464 226.689 26.368Z" fill="url(#paint13_radial_324_6116)"/>
<path d="M221.387 36.208C221.387 35.68 223.886 34.608 227.041 33.92C230.197 33.232 232.776 33.024 232.776 33.6C232.776 34.176 230.261 35.2 227.106 35.888C223.95 36.576 221.403 36.8 221.387 36.208Z" fill="url(#paint14_radial_324_6116)"/>
<path d="M225.393 40.8162C225.466 38.6679 225.882 36.5452 226.626 34.5282C227.571 31.3282 228.532 28.7522 228.789 28.9442C228.715 31.0924 228.299 33.2152 227.555 35.2322C226.626 38.5122 225.649 41.0082 225.393 40.8162Z" fill="url(#paint15_radial_324_6116)"/>
<path d="M56.9688 35.6836C56.9688 35.1302 56.7734 34.707 56.3828 34.4141C55.9922 34.1146 55.2891 33.8021 54.2734 33.4766C53.2578 33.1445 52.4538 32.819 51.8613 32.5C50.2467 31.6276 49.4395 30.4525 49.4395 28.9746C49.4395 28.2064 49.6543 27.5228 50.084 26.9238C50.5202 26.3184 51.1419 25.8464 51.9492 25.5078C52.763 25.1693 53.6745 25 54.6836 25C55.6992 25 56.6042 25.1855 57.3984 25.5566C58.1927 25.9212 58.8079 26.4388 59.2441 27.1094C59.6868 27.7799 59.9082 28.5417 59.9082 29.3945H56.9785C56.9785 28.7435 56.7734 28.2389 56.3633 27.8809C55.9531 27.5163 55.377 27.334 54.6348 27.334C53.9186 27.334 53.362 27.487 52.9648 27.793C52.5677 28.0924 52.3691 28.4896 52.3691 28.9844C52.3691 29.4466 52.6003 29.834 53.0625 30.1465C53.5312 30.459 54.2181 30.752 55.123 31.0254C56.7897 31.5267 58.0039 32.1484 58.7656 32.8906C59.5273 33.6328 59.9082 34.5573 59.9082 35.6641C59.9082 36.8945 59.4427 37.8613 58.5117 38.5645C57.5807 39.2611 56.3275 39.6094 54.752 39.6094C53.6582 39.6094 52.6621 39.4108 51.7637 39.0137C50.8652 38.61 50.1784 38.0599 49.7031 37.3633C49.2344 36.6667 49 35.8594 49 34.9414H51.9395C51.9395 36.5104 52.877 37.2949 54.752 37.2949C55.4486 37.2949 55.9922 37.1549 56.3828 36.875C56.7734 36.5885 56.9688 36.1914 56.9688 35.6836Z" fill="white"/>
<path d="M66.0156 39.4141H63.0859V25.1953H66.0156V39.4141Z" fill="white"/>
<path d="M80.9902 37.6172C80.4629 38.2487 79.7174 38.7402 78.7539 39.0918C77.7904 39.4368 76.7227 39.6094 75.5508 39.6094C74.3203 39.6094 73.2396 39.3424 72.3086 38.8086C71.3841 38.2682 70.668 37.487 70.1602 36.4648C69.6589 35.4427 69.4017 34.2415 69.3887 32.8613V31.8945C69.3887 30.4753 69.6263 29.248 70.1016 28.2129C70.5833 27.1712 71.2734 26.377 72.1719 25.8301C73.0768 25.2767 74.1348 25 75.3457 25C77.0319 25 78.3503 25.4036 79.3008 26.2109C80.2513 27.0117 80.8145 28.1803 80.9902 29.7168H78.1387C78.0085 28.903 77.7188 28.3073 77.2695 27.9297C76.8268 27.5521 76.2148 27.3633 75.4336 27.3633C74.4375 27.3633 73.679 27.7376 73.1582 28.4863C72.6374 29.235 72.3737 30.3483 72.3672 31.8262V32.7344C72.3672 34.2253 72.6504 35.3516 73.2168 36.1133C73.7832 36.875 74.6133 37.2559 75.707 37.2559C76.8073 37.2559 77.5918 37.0215 78.0605 36.5527V34.1016H75.3945V31.9434H80.9902V37.6172Z" fill="white"/>
<path d="M95.9355 39.4141H93.0059L87.3027 30.0586V39.4141H84.373V25.1953H87.3027L93.0156 34.5703V25.1953H95.9355V39.4141Z" fill="white"/>
<path d="M116.236 25.1953V34.5605C116.236 36.1165 115.748 37.347 114.771 38.252C113.801 39.1569 112.473 39.6094 110.787 39.6094C109.127 39.6094 107.809 39.1699 106.832 38.291C105.855 37.4121 105.357 36.2044 105.338 34.668V25.1953H108.268V34.5801C108.268 35.5111 108.489 36.1914 108.932 36.6211C109.381 37.0443 109.999 37.2559 110.787 37.2559C112.434 37.2559 113.271 36.39 113.297 34.6582V25.1953H116.236Z" fill="white"/>
<path d="M122.568 34.4043V39.4141H119.639V25.1953H125.186C126.253 25.1953 127.191 25.3906 127.998 25.7812C128.812 26.1719 129.437 26.7285 129.873 27.4512C130.309 28.1673 130.527 28.9844 130.527 29.9023C130.527 31.2956 130.049 32.3958 129.092 33.2031C128.141 34.0039 126.823 34.4043 125.137 34.4043H122.568ZM122.568 32.0312H125.186C125.96 32.0312 126.549 31.849 126.953 31.4844C127.363 31.1198 127.568 30.599 127.568 29.9219C127.568 29.2253 127.363 28.6621 126.953 28.2324C126.543 27.8027 125.977 27.5814 125.254 27.5684H122.568V32.0312Z" fill="white"/>
<path d="M151.092 39.4141H148.162L142.459 30.0586V39.4141H139.529V25.1953H142.459L148.172 34.5703V25.1953H151.092V39.4141Z" fill="white"/>
<path d="M166.33 32.627C166.33 34.0267 166.083 35.2539 165.588 36.3086C165.093 37.3633 164.383 38.1771 163.459 38.75C162.541 39.3229 161.486 39.6094 160.295 39.6094C159.117 39.6094 158.065 39.3262 157.141 38.7598C156.216 38.1934 155.5 37.3861 154.992 36.3379C154.484 35.2832 154.227 34.0723 154.221 32.7051V32.002C154.221 30.6022 154.471 29.3717 154.973 28.3105C155.48 27.2428 156.193 26.4258 157.111 25.8594C158.036 25.2865 159.09 25 160.275 25C161.46 25 162.512 25.2865 163.43 25.8594C164.354 26.4258 165.067 27.2428 165.568 28.3105C166.076 29.3717 166.33 30.599 166.33 31.9922V32.627ZM163.361 31.9824C163.361 30.4915 163.094 29.3587 162.561 28.584C162.027 27.8092 161.265 27.4219 160.275 27.4219C159.292 27.4219 158.534 27.806 158 28.5742C157.466 29.3359 157.196 30.4557 157.189 31.9336V32.627C157.189 34.0788 157.456 35.2051 157.99 36.0059C158.524 36.8066 159.292 37.207 160.295 37.207C161.278 37.207 162.033 36.8229 162.561 36.0547C163.088 35.2799 163.355 34.1536 163.361 32.6758V31.9824Z" fill="white"/>
<path d="M180.533 35.3125L182.447 25.1953H185.367L182.213 39.4141H179.264L176.949 29.9023L174.635 39.4141H171.686L168.531 25.1953H171.451L173.375 35.293L175.719 25.1953H178.199L180.533 35.3125Z" fill="white"/>
</g>
<defs>
<linearGradient id="paint0_linear_324_6116" x1="117.423" y1="64" x2="117.423" y2="0" gradientUnits="userSpaceOnUse">
<stop stop-color="#363636"/>
<stop offset="1" stop-color="#D6D6D6"/>
</linearGradient>
<linearGradient id="paint1_linear_324_6116" x1="41.9864" y1="94.896" x2="193.01" y2="-31.9693" gradientUnits="userSpaceOnUse">
<stop stop-color="#363636"/>
<stop offset="0.23" stop-color="#D6D6D6"/>
<stop offset="0.49" stop-color="#141414"/>
<stop offset="0.77" stop-color="#D6D6D6"/>
<stop offset="0.97" stop-color="#6B6B6A"/>
</linearGradient>
<linearGradient id="paint2_linear_324_6116" x1="117.423" y1="60.5604" x2="117.423" y2="3.44043" gradientUnits="userSpaceOnUse">
<stop stop-color="#D6D6D6"/>
<stop offset="1" stop-color="#363636"/>
</linearGradient>
<linearGradient id="paint3_linear_324_6116" x1="117.423" y1="58.8319" x2="117.423" y2="5.16785" gradientUnits="userSpaceOnUse">
<stop stop-color="#710000"/>
<stop offset="0.05" stop-color="#850000"/>
<stop offset="0.16" stop-color="#A90000"/>
<stop offset="0.26" stop-color="#C60000"/>
<stop offset="0.37" stop-color="#DA0000"/>
<stop offset="0.47" stop-color="#E60000"/>
<stop offset="0.58" stop-color="#EA0000"/>
<stop offset="0.67" stop-color="#E70000"/>
<stop offset="0.74" stop-color="#DC0000"/>
<stop offset="0.81" stop-color="#CB0000"/>
<stop offset="0.88" stop-color="#B30000"/>
<stop offset="0.94" stop-color="#940000"/>
<stop offset="1" stop-color="#710000"/>
</linearGradient>
<linearGradient id="paint4_linear_324_6116" x1="117.423" y1="63.1998" x2="117.423" y2="0.799805" gradientUnits="userSpaceOnUse">
<stop offset="0.03" stop-color="#6B6B6A"/>
<stop offset="0.31"/>
<stop offset="0.66"/>
<stop offset="0.77" stop-color="#D6D6D6"/>
<stop offset="1" stop-color="#878787"/>
</linearGradient>
<linearGradient id="paint5_linear_324_6116" x1="117.424" y1="16.2079" x2="117.424" y2="1.15193" gradientUnits="userSpaceOnUse">
<stop offset="0.26" stop-color="white"/>
<stop offset="1" stop-color="#525252"/>
</linearGradient>
<linearGradient id="paint6_linear_324_6116" x1="117.423" y1="62.8482" x2="117.423" y2="35.2322" gradientUnits="userSpaceOnUse">
<stop/>
<stop offset="0.17" stop-color="#515151"/>
<stop offset="0.55" stop-color="white"/>
<stop offset="1" stop-color="#5C5C5C"/>
</linearGradient>
<radialGradient id="paint7_radial_324_6116" cx="0" cy="0" r="1" gradientUnits="userSpaceOnUse" gradientTransform="translate(8.89568 19.2835) rotate(5.55342) scale(8.34585 12.6561)">
<stop stop-color="white" stop-opacity="0.4"/>
<stop offset="1" stop-color="white" stop-opacity="0"/>
</radialGradient>
<radialGradient id="paint8_radial_324_6116" cx="0" cy="0" r="1" gradientUnits="userSpaceOnUse" gradientTransform="translate(8.87346 18.9363) rotate(90) scale(8.50463 0.816823)">
<stop stop-color="white"/>
<stop offset="1" stop-color="white" stop-opacity="0"/>
</radialGradient>
<radialGradient id="paint9_radial_324_6116" cx="0" cy="0" r="1" gradientUnits="userSpaceOnUse" gradientTransform="translate(8.85353 18.944) rotate(90) scale(1.62517 5.71095)">
<stop stop-color="white"/>
<stop offset="1" stop-color="white" stop-opacity="0"/>
</radialGradient>
<radialGradient id="paint10_radial_324_6116" cx="0" cy="0" r="1" gradientUnits="userSpaceOnUse" gradientTransform="translate(8.81421 18.9372) rotate(90) scale(5.45084 2.91187)">
<stop stop-color="white"/>
<stop offset="1" stop-color="white" stop-opacity="0"/>
</radialGradient>
<radialGradient id="paint11_radial_324_6116" cx="0" cy="0" r="1" gradientUnits="userSpaceOnUse" gradientTransform="translate(227.138 34.872) rotate(90) scale(2.81001 2.37083)">
<stop stop-color="white"/>
<stop offset="1" stop-color="white" stop-opacity="0"/>
</radialGradient>
<radialGradient id="paint12_radial_324_6116" cx="0" cy="0" r="1" gradientUnits="userSpaceOnUse" gradientTransform="translate(226.953 34.8049) rotate(5.55341) scale(8.49003 12.8801)">
<stop stop-color="white" stop-opacity="0.5"/>
<stop offset="1" stop-color="white" stop-opacity="0"/>
</radialGradient>
<radialGradient id="paint13_radial_324_6116" cx="0" cy="0" r="1" gradientUnits="userSpaceOnUse" gradientTransform="translate(227.095 34.88) rotate(90) scale(8.51326 0.755363)">
<stop stop-color="white"/>
<stop offset="1" stop-color="white" stop-opacity="0"/>
</radialGradient>
<radialGradient id="paint14_radial_324_6116" cx="0" cy="0" r="1" gradientUnits="userSpaceOnUse" gradientTransform="translate(227.082 34.9074) rotate(90) scale(1.64181 5.69479)">
<stop stop-color="white"/>
<stop offset="1" stop-color="white" stop-opacity="0"/>
</radialGradient>
<radialGradient id="paint15_radial_324_6116" cx="0" cy="0" r="1" gradientUnits="userSpaceOnUse" gradientTransform="translate(227.091 34.8803) rotate(90) scale(5.94623 1.69802)">
<stop stop-color="white"/>
<stop offset="1" stop-color="white" stop-opacity="0"/>
</radialGradient>
<clipPath id="clip0_324_6116">
<rect width="235" height="64" fill="white" transform="translate(0.5)"/>
</clipPath>
</defs>
</svg>
