<svg width="190" height="64" viewBox="0 0 190 64" fill="none" xmlns="http://www.w3.org/2000/svg">
<g clip-path="url(#clip0_296_8552)">
<path d="M161.647 0.511719H26.1644C17.6146 0.511719 10.6836 7.45769 10.6836 16.026V48.4855C10.6836 57.0538 17.6146 63.9998 26.1644 63.9998H161.647C170.197 63.9998 177.128 57.0538 177.128 48.4855V16.026C177.128 7.45769 170.197 0.511719 161.647 0.511719Z" fill="url(#paint0_linear_296_8552)"/>
<path d="M176.677 48.484V16.0265C176.677 7.70816 169.948 0.964844 161.648 0.964844L26.1647 0.964844C17.8643 0.964844 11.1356 7.70816 11.1356 16.0265V48.484C11.1356 56.8023 17.8643 63.5457 26.1647 63.5457L161.648 63.5457C169.948 63.5457 176.677 56.8023 176.677 48.484Z" fill="url(#paint1_linear_296_8552)"/>
<path d="M173.723 48.484V16.0265C173.723 9.34344 168.317 3.92578 161.648 3.92578L26.1651 3.92578C19.4966 3.92578 14.0906 9.34344 14.0906 16.0265V48.484C14.0906 55.1671 19.4966 60.5847 26.1651 60.5847L161.648 60.5847C168.317 60.5847 173.723 55.1671 173.723 48.484Z" fill="url(#paint2_linear_296_8552)"/>
<path d="M172.251 48.4861V16.0246C172.251 10.157 167.505 5.40039 161.65 5.40039L26.1648 5.40039C20.3099 5.40039 15.5636 10.157 15.5636 16.0246V48.4861C15.5636 54.3537 20.3099 59.1103 26.1648 59.1103L161.65 59.1103C167.505 59.1103 172.251 54.3537 172.251 48.4861Z" fill="#3C3C3C"/>
<path d="M172.021 48.4833V16.0238C172.021 10.2839 167.377 5.63086 161.65 5.63086L26.1671 5.63086C20.4397 5.63086 15.7966 10.2839 15.7966 16.0238V48.4833C15.7966 54.2232 20.4397 58.8762 26.1671 58.8762L161.65 58.8762C167.377 58.8762 172.021 54.2232 172.021 48.4833Z" fill="url(#paint3_linear_296_8552)"/>
<path d="M166.77 53.4865H21.0446C20.0702 53.4863 19.1012 53.3418 18.1689 53.0576C18.9736 54.4716 20.137 55.6473 21.5412 56.4655C22.9454 57.2836 24.5405 57.7152 26.1647 57.7164H161.642C163.266 57.7146 164.861 57.2828 166.265 56.4647C167.669 55.6466 168.832 54.4712 169.638 53.0576C168.708 53.3409 167.742 53.4854 166.77 53.4865Z" fill="white" fill-opacity="0.4"/>
<path d="M161.642 7.03613H26.1646C23.7837 7.03875 21.5011 7.98774 19.8176 9.67489C18.1341 11.362 17.1872 13.6496 17.1846 16.0356V28.2904C42.4303 30.8323 71.029 32.2653 101.314 32.2653C125.824 32.2653 149.22 31.3264 170.627 29.6226V16.0257C170.623 13.6402 169.674 11.354 167.989 9.66872C166.305 7.98342 164.022 7.03665 161.642 7.03613V7.03613Z" fill="white" fill-opacity="0.4"/>
<path d="M25.682 62.8929C21.7897 62.8888 18.058 61.3375 15.3056 58.5795C12.5531 55.8214 11.0047 52.0819 11 48.1812V15.7216C11.0026 11.8194 12.55 8.0776 15.3027 5.31755C18.0553 2.5575 21.7882 1.00471 25.682 1H161.159C165.051 1.00471 168.783 2.55648 171.535 5.31487C174.287 8.07327 175.835 11.813 175.839 15.7137V48.1812C175.834 52.0816 174.286 55.8208 171.534 58.5788C168.782 61.3367 165.051 62.8882 161.159 62.8929H25.682ZM25.682 3.27308C22.3865 3.27308 19.226 4.58504 16.8957 6.92033C14.5655 9.25563 13.2563 12.423 13.2563 15.7256V48.1812C13.2563 51.4838 14.5655 54.6512 16.8957 56.9865C19.226 59.3218 22.3865 60.6337 25.682 60.6337H161.159C164.454 60.6337 167.615 59.3218 169.945 56.9865C172.276 54.6512 173.585 51.4838 173.585 48.1812V15.7216C173.585 12.419 172.276 9.25168 169.945 6.91638C167.615 4.58108 164.454 3.26912 161.159 3.26912L25.682 3.27308Z" fill="url(#paint4_linear_296_8552)"/>
<path d="M13.4059 15.5576C13.5303 12.2484 14.9285 9.11617 17.3073 6.81775C19.6861 4.51933 22.8606 3.23335 26.1649 3.22957H161.642C165.027 3.23375 168.272 4.58329 170.666 6.98218C173.06 9.38108 174.407 12.6335 174.411 16.026V16.4213L175.975 16.6012V16.032C175.973 12.2223 174.462 8.56921 171.775 5.87466C169.088 3.18011 165.443 1.66434 161.642 1.66016H26.1649C22.4187 1.66485 18.8228 3.13746 16.1454 5.76339C13.468 8.38932 11.9214 11.9604 11.8359 15.7137L13.4059 15.5576Z" fill="url(#paint5_linear_296_8552)"/>
<path d="M174.419 35.6537V48.4858C174.414 51.8797 173.067 55.1333 170.671 57.5324C168.276 59.9315 165.029 61.2801 161.642 61.2822H26.1649C22.7797 61.278 19.5343 59.9285 17.1406 57.5296C14.7469 55.1307 13.4003 51.8783 13.3961 48.4858V36.5017L11.832 36.3218V48.4858C11.8362 52.294 13.3476 55.9451 16.0346 58.6379C18.7217 61.3308 22.3649 62.8455 26.1649 62.8496H161.642C165.442 62.8455 169.085 61.3308 171.772 58.6379C174.459 55.9451 175.971 52.294 175.975 48.4858V35.4541L174.419 35.6537Z" fill="url(#paint6_linear_296_8552)"/>
<path d="M25.8932 20.8984C26.9446 10.0747 22.0323 0.737908 14.9213 0.0441825C7.81027 -0.649543 1.19334 7.56247 0.141967 18.3862C-0.90941 29.21 4.0029 38.5468 11.1139 39.2405C18.2249 39.9342 24.8418 31.7222 25.8932 20.8984Z" fill="url(#paint7_radial_296_8552)" fill-opacity="0.5"/>
<path d="M12.5672 10.8636C12.9163 10.7826 13.3817 14.4926 13.6066 19.1534C13.8314 23.8142 13.7269 27.6528 13.3758 27.7378C13.0248 27.8227 12.5613 24.1087 12.3364 19.4479C12.1116 14.7871 12.2161 10.9446 12.5672 10.8636Z" fill="url(#paint8_radial_296_8552)"/>
<path d="M10.6246 16.5359C10.7508 16.3007 11.9026 17.3483 13.2004 18.8742C14.4982 20.4002 15.4449 21.8391 15.3187 22.0645C15.1925 22.2898 14.0386 21.2521 12.7428 19.7261C11.447 18.2002 10.4983 16.7711 10.6246 16.5359Z" fill="url(#paint9_radial_296_8552)"/>
<path d="M7.32734 20.6135C7.3017 20.0818 9.80853 19.0757 12.9287 18.3523C16.049 17.6289 18.5933 17.4628 18.6189 17.9866C18.6445 18.5104 16.1377 19.5244 13.0195 20.2498C9.90123 20.9752 7.35101 21.1373 7.32734 20.6135Z" fill="url(#paint10_radial_296_8552)"/>
<path d="M10.0743 24.6912C9.86722 24.4461 10.9954 21.8351 12.5949 18.8583C14.1945 15.8816 15.6599 13.6658 15.869 13.9169C16.0781 14.1679 14.9479 16.773 13.3484 19.7498C11.7488 22.7265 10.2814 24.9344 10.0743 24.6912Z" fill="url(#paint11_radial_296_8552)"/>
<path d="M188.858 36.7109C189.909 25.8872 184.997 16.5504 177.886 15.8567C170.775 15.163 164.158 23.375 163.107 34.1987C162.055 45.0225 166.968 54.3593 174.079 55.053C181.19 55.7467 187.807 47.5347 188.858 36.7109Z" fill="url(#paint12_radial_296_8552)" fill-opacity="0.5"/>
<path d="M175.531 26.6761C175.882 26.5951 176.347 30.3051 176.57 34.9659C176.793 39.6267 176.69 43.4653 176.341 43.5503C175.992 43.6352 175.525 39.9212 175.302 35.2604C175.079 30.5996 175.18 26.7571 175.531 26.6761Z" fill="url(#paint13_radial_296_8552)"/>
<path d="M173.588 32.3484C173.715 32.1132 174.868 33.1608 176.164 34.6867C177.46 36.2127 178.411 37.6516 178.285 37.8769C178.158 38.1023 177.004 37.0646 175.709 35.5386C174.413 34.0127 173.462 32.5836 173.588 32.3484Z" fill="url(#paint14_radial_296_8552)"/>
<path d="M170.29 36.427C170.267 35.9032 172.773 34.8892 175.89 34.1658C179.006 33.4423 181.556 33.2763 181.582 33.8001C181.607 34.3239 179.099 35.3379 175.982 36.0613C172.866 36.7848 170.32 36.9508 170.29 36.427Z" fill="url(#paint15_radial_296_8552)"/>
<path d="M173.04 40.5027C172.83 40.2596 173.961 37.6485 175.56 34.6718C177.16 31.6951 178.625 29.4793 178.832 29.7303C179.039 29.9814 177.911 32.5865 176.312 35.5632C174.712 38.54 173.247 40.7478 173.04 40.5027Z" fill="url(#paint16_radial_296_8552)"/>
</g>
<path d="M60.9688 35.6836C60.9688 35.1302 60.7734 34.707 60.3828 34.4141C59.9922 34.1146 59.2891 33.8021 58.2734 33.4766C57.2578 33.1445 56.4538 32.819 55.8613 32.5C54.2467 31.6276 53.4395 30.4525 53.4395 28.9746C53.4395 28.2064 53.6543 27.5228 54.084 26.9238C54.5202 26.3184 55.1419 25.8464 55.9492 25.5078C56.763 25.1693 57.6745 25 58.6836 25C59.6992 25 60.6042 25.1855 61.3984 25.5566C62.1927 25.9212 62.8079 26.4388 63.2441 27.1094C63.6868 27.7799 63.9082 28.5417 63.9082 29.3945H60.9785C60.9785 28.7435 60.7734 28.2389 60.3633 27.8809C59.9531 27.5163 59.377 27.334 58.6348 27.334C57.9186 27.334 57.362 27.487 56.9648 27.793C56.5677 28.0924 56.3691 28.4896 56.3691 28.9844C56.3691 29.4466 56.6003 29.834 57.0625 30.1465C57.5312 30.459 58.2181 30.752 59.123 31.0254C60.7897 31.5267 62.0039 32.1484 62.7656 32.8906C63.5273 33.6328 63.9082 34.5573 63.9082 35.6641C63.9082 36.8945 63.4427 37.8613 62.5117 38.5645C61.5807 39.2611 60.3275 39.6094 58.752 39.6094C57.6582 39.6094 56.6621 39.4108 55.7637 39.0137C54.8652 38.61 54.1784 38.0599 53.7031 37.3633C53.2344 36.6667 53 35.8594 53 34.9414H55.9395C55.9395 36.5104 56.877 37.2949 58.752 37.2949C59.4486 37.2949 59.9922 37.1549 60.3828 36.875C60.7734 36.5885 60.9688 36.1914 60.9688 35.6836Z" fill="white"/>
<path d="M70.0156 39.4141H67.0859V25.1953H70.0156V39.4141Z" fill="white"/>
<path d="M84.9902 37.6172C84.4629 38.2487 83.7174 38.7402 82.7539 39.0918C81.7904 39.4368 80.7227 39.6094 79.5508 39.6094C78.3203 39.6094 77.2396 39.3424 76.3086 38.8086C75.3841 38.2682 74.668 37.487 74.1602 36.4648C73.6589 35.4427 73.4017 34.2415 73.3887 32.8613V31.8945C73.3887 30.4753 73.6263 29.248 74.1016 28.2129C74.5833 27.1712 75.2734 26.377 76.1719 25.8301C77.0768 25.2767 78.1348 25 79.3457 25C81.0319 25 82.3503 25.4036 83.3008 26.2109C84.2513 27.0117 84.8145 28.1803 84.9902 29.7168H82.1387C82.0085 28.903 81.7188 28.3073 81.2695 27.9297C80.8268 27.5521 80.2148 27.3633 79.4336 27.3633C78.4375 27.3633 77.679 27.7376 77.1582 28.4863C76.6374 29.235 76.3737 30.3483 76.3672 31.8262V32.7344C76.3672 34.2253 76.6504 35.3516 77.2168 36.1133C77.7832 36.875 78.6133 37.2559 79.707 37.2559C80.8073 37.2559 81.5918 37.0215 82.0605 36.5527V34.1016H79.3945V31.9434H84.9902V37.6172Z" fill="white"/>
<path d="M99.9355 39.4141H97.0059L91.3027 30.0586V39.4141H88.373V25.1953H91.3027L97.0156 34.5703V25.1953H99.9355V39.4141Z" fill="white"/>
<path d="M120.236 25.1953V34.5605C120.236 36.1165 119.748 37.347 118.771 38.252C117.801 39.1569 116.473 39.6094 114.787 39.6094C113.127 39.6094 111.809 39.1699 110.832 38.291C109.855 37.4121 109.357 36.2044 109.338 34.668V25.1953H112.268V34.5801C112.268 35.5111 112.489 36.1914 112.932 36.6211C113.381 37.0443 113.999 37.2559 114.787 37.2559C116.434 37.2559 117.271 36.39 117.297 34.6582V25.1953H120.236Z" fill="white"/>
<path d="M126.568 34.4043V39.4141H123.639V25.1953H129.186C130.253 25.1953 131.191 25.3906 131.998 25.7812C132.812 26.1719 133.437 26.7285 133.873 27.4512C134.309 28.1673 134.527 28.9844 134.527 29.9023C134.527 31.2956 134.049 32.3958 133.092 33.2031C132.141 34.0039 130.823 34.4043 129.137 34.4043H126.568ZM126.568 32.0312H129.186C129.96 32.0312 130.549 31.849 130.953 31.4844C131.363 31.1198 131.568 30.599 131.568 29.9219C131.568 29.2253 131.363 28.6621 130.953 28.2324C130.543 27.8027 129.977 27.5814 129.254 27.5684H126.568V32.0312Z" fill="white"/>
<defs>
<linearGradient id="paint0_linear_296_8552" x1="93.9058" y1="63.9998" x2="93.9058" y2="0.511719" gradientUnits="userSpaceOnUse">
<stop stop-color="#363636"/>
<stop offset="1" stop-color="#D6D6D6"/>
</linearGradient>
<linearGradient id="paint1_linear_296_8552" x1="34.6713" y1="82.0663" x2="153.352" y2="-17.3034" gradientUnits="userSpaceOnUse">
<stop stop-color="#363636"/>
<stop offset="0.23" stop-color="#D6D6D6"/>
<stop offset="0.49" stop-color="#141414"/>
<stop offset="0.77" stop-color="#D6D6D6"/>
<stop offset="0.97" stop-color="#6B6B6A"/>
</linearGradient>
<linearGradient id="paint2_linear_296_8552" x1="93.9066" y1="60.5847" x2="93.9066" y2="3.92578" gradientUnits="userSpaceOnUse">
<stop stop-color="#D6D6D6"/>
<stop offset="1" stop-color="#363636"/>
</linearGradient>
<linearGradient id="paint3_linear_296_8552" x1="93.9066" y1="58.8762" x2="93.9066" y2="5.63283" gradientUnits="userSpaceOnUse">
<stop stop-color="#710000"/>
<stop offset="0.05" stop-color="#850000"/>
<stop offset="0.16" stop-color="#A90000"/>
<stop offset="0.26" stop-color="#C60000"/>
<stop offset="0.37" stop-color="#DA0000"/>
<stop offset="0.47" stop-color="#E60000"/>
<stop offset="0.58" stop-color="#EA0000"/>
<stop offset="0.67" stop-color="#E70000"/>
<stop offset="0.74" stop-color="#DC0000"/>
<stop offset="0.81" stop-color="#CB0000"/>
<stop offset="0.88" stop-color="#B30000"/>
<stop offset="0.94" stop-color="#940000"/>
<stop offset="1" stop-color="#710000"/>
</linearGradient>
<linearGradient id="paint4_linear_296_8552" x1="93.4235" y1="62.893" x2="93.4235" y2="1.00791" gradientUnits="userSpaceOnUse">
<stop offset="0.03" stop-color="#6B6B6A"/>
<stop offset="0.31"/>
<stop offset="0.66"/>
<stop offset="0.77" stop-color="#D6D6D6"/>
<stop offset="1" stop-color="#878787"/>
</linearGradient>
<linearGradient id="paint5_linear_296_8552" x1="93.9083" y1="16.5953" x2="93.9083" y2="1.66016" gradientUnits="userSpaceOnUse">
<stop offset="0.26" stop-color="white"/>
<stop offset="1" stop-color="#525252"/>
</linearGradient>
<linearGradient id="paint6_linear_296_8552" x1="93.9064" y1="62.8496" x2="93.9064" y2="35.4541" gradientUnits="userSpaceOnUse">
<stop/>
<stop offset="0.17" stop-color="#515151"/>
<stop offset="0.55" stop-color="white"/>
<stop offset="1" stop-color="#5C5C5C"/>
</linearGradient>
<radialGradient id="paint7_radial_296_8552" cx="0" cy="0" r="1" gradientUnits="userSpaceOnUse" gradientTransform="translate(13.0176 19.6423) rotate(5.57195) scale(12.9367 19.6904)">
<stop stop-color="white" stop-opacity="0.4"/>
<stop offset="1" stop-color="white" stop-opacity="0"/>
</radialGradient>
<radialGradient id="paint8_radial_296_8552" cx="0" cy="0" r="1" gradientUnits="userSpaceOnUse" gradientTransform="translate(12.9715 19.3007) rotate(90) scale(8.43844 0.75373)">
<stop stop-color="white"/>
<stop offset="1" stop-color="white" stop-opacity="0"/>
</radialGradient>
<radialGradient id="paint9_radial_296_8552" cx="0" cy="0" r="1" gradientUnits="userSpaceOnUse" gradientTransform="translate(12.9716 19.2991) rotate(90) scale(2.79613 2.35835)">
<stop stop-color="white"/>
<stop offset="1" stop-color="white" stop-opacity="0"/>
</radialGradient>
<radialGradient id="paint10_radial_296_8552" cx="0" cy="0" r="1" gradientUnits="userSpaceOnUse" gradientTransform="translate(12.9731 19.3007) rotate(90) scale(1.62003 5.64598)">
<stop stop-color="white"/>
<stop offset="1" stop-color="white" stop-opacity="0"/>
</radialGradient>
<radialGradient id="paint11_radial_296_8552" cx="0" cy="0" r="1" gradientUnits="userSpaceOnUse" gradientTransform="translate(12.9719 19.3035) rotate(90) scale(5.40604 2.92205)">
<stop stop-color="white"/>
<stop offset="1" stop-color="white" stop-opacity="0"/>
</radialGradient>
<radialGradient id="paint12_radial_296_8552" cx="0" cy="0" r="1" gradientUnits="userSpaceOnUse" gradientTransform="translate(175.982 35.4548) rotate(5.57196) scale(12.9367 19.6904)">
<stop stop-color="white" stop-opacity="0.4"/>
<stop offset="1" stop-color="white" stop-opacity="0"/>
</radialGradient>
<radialGradient id="paint13_radial_296_8552" cx="0" cy="0" r="1" gradientUnits="userSpaceOnUse" gradientTransform="translate(175.936 35.1132) rotate(90) scale(8.43844 0.752205)">
<stop stop-color="white"/>
<stop offset="1" stop-color="white" stop-opacity="0"/>
</radialGradient>
<radialGradient id="paint14_radial_296_8552" cx="0" cy="0" r="1" gradientUnits="userSpaceOnUse" gradientTransform="translate(175.936 35.1115) rotate(90) scale(2.79612 2.35931)">
<stop stop-color="white"/>
<stop offset="1" stop-color="white" stop-opacity="0"/>
</radialGradient>
<radialGradient id="paint15_radial_296_8552" cx="0" cy="0" r="1" gradientUnits="userSpaceOnUse" gradientTransform="translate(175.936 35.1136) rotate(90) scale(1.61941 5.64597)">
<stop stop-color="white"/>
<stop offset="1" stop-color="white" stop-opacity="0"/>
</radialGradient>
<radialGradient id="paint16_radial_296_8552" cx="0" cy="0" r="1" gradientUnits="userSpaceOnUse" gradientTransform="translate(175.936 35.1161) rotate(90) scale(5.40519 2.92106)">
<stop stop-color="white"/>
<stop offset="1" stop-color="white" stop-opacity="0"/>
</radialGradient>
<clipPath id="clip0_296_8552">
<rect width="189" height="64" fill="white"/>
</clipPath>
</defs>
</svg>
