<svg width="88" height="106" viewBox="0 0 88 106" fill="none" xmlns="http://www.w3.org/2000/svg">
<g clip-path="url(#clip0_296_8134)">
<path d="M70.4214 23.4893C71.6866 25.6604 72.2012 28.1935 71.8846 30.6913C71.5679 33.1891 70.438 35.5103 68.6719 37.2908C66.9058 39.0714 64.6034 40.2106 62.1259 40.5299C59.6484 40.8491 57.1359 40.3302 54.9824 39.0547C55.8544 40.5545 57.0557 41.8329 58.4941 42.7917C59.9326 43.7504 61.5699 44.364 63.2802 44.5853C64.9906 44.8065 66.7284 44.6296 68.3604 44.0681C69.9923 43.5066 71.4749 42.5754 72.6942 41.3461C73.9135 40.1168 74.8371 38.6221 75.3941 36.9768C75.951 35.3315 76.1265 33.5794 75.907 31.855C75.6876 30.1307 75.079 28.48 74.128 27.0297C73.1771 25.5795 71.909 24.3683 70.4214 23.4893V23.4893Z" fill="black"/>
<path d="M50.3353 44.6794V15.1356C50.3353 14.5973 50.1232 14.081 49.7457 13.7004C49.3681 13.3198 48.8561 13.106 48.3222 13.106H45.5674V44.6794H50.3353Z" fill="black"/>
<path d="M36.9876 53.8569H21.5244V56.1734C21.5244 56.4402 21.5766 56.7044 21.6779 56.9508C21.7793 57.1973 21.9279 57.4212 22.1151 57.6097C22.3024 57.7982 22.5247 57.9476 22.7692 58.0494C23.0138 58.1513 23.2759 58.2035 23.5406 58.2031H36.9876V53.8569Z" fill="black"/>
<path d="M62.2928 30.8569C62.0822 31.0695 61.8321 31.2382 61.5568 31.3533C61.2815 31.4684 60.9864 31.5276 60.6884 31.5276C60.3903 31.5276 60.0952 31.4684 59.8199 31.3533C59.5446 31.2382 59.2945 31.0695 59.0839 30.8569V30.8569C58.8731 30.6449 58.7059 30.393 58.5918 30.1157C58.4777 29.8384 58.4189 29.5411 58.4189 29.2409C58.4189 28.9406 58.4777 28.6434 58.5918 28.3661C58.7059 28.0887 58.8731 27.8369 59.0839 27.6248V27.6248C59.2945 27.4122 59.5446 27.2435 59.8199 27.1284C60.0952 27.0133 60.3903 26.9541 60.6884 26.9541C60.9864 26.9541 61.2815 27.0133 61.5568 27.1284C61.8321 27.2435 62.0822 27.4122 62.2928 27.6248V27.6248C62.7171 28.0539 62.9553 28.635 62.9553 29.2409C62.9553 29.8467 62.7171 30.4278 62.2928 30.8569Z" fill="black"/>
<path d="M54.7794 43.9165H38.6109C37.98 43.9173 37.3753 44.1703 36.9292 44.62C36.4832 45.0697 36.2322 45.6794 36.2314 46.3154V62.6011C36.2322 63.2371 36.4832 63.8468 36.9292 64.2965C37.3753 64.7462 37.98 64.9992 38.6109 65H54.7794C55.4102 64.9992 56.0149 64.7462 56.461 64.2965C56.907 63.8468 57.158 63.2371 57.1588 62.6011V46.3154C57.158 45.6794 56.907 45.0697 56.461 44.62C56.0149 44.1703 55.4102 43.9173 54.7794 43.9165V43.9165ZM55.6452 62.6011C55.6444 62.8324 55.5529 63.0539 55.3907 63.2175C55.2285 63.381 55.0087 63.4732 54.7794 63.474H38.6109C38.3815 63.4732 38.1617 63.381 37.9995 63.2175C37.8373 63.0539 37.7459 62.8324 37.7451 62.6011V46.3154C37.7459 46.0842 37.8373 45.8626 37.9995 45.6991C38.1617 45.5356 38.3815 45.4433 38.6109 45.4425H54.7794C55.0087 45.4433 55.2285 45.5356 55.3907 45.6991C55.5529 45.8626 55.6444 46.0842 55.6452 46.3154V62.6011Z" fill="black"/>
<path d="M42.7431 47.7563C42.2042 47.7563 41.6775 47.9174 41.2294 48.2193C40.7814 48.5211 40.4322 48.9501 40.2259 49.452C40.0197 49.9539 39.9658 50.5062 40.0709 51.0391C40.176 51.5719 40.4355 52.0614 40.8165 52.4455C41.1976 52.8297 41.683 53.0913 42.2115 53.1973C42.7401 53.3032 43.2879 53.2488 43.7857 53.0409C44.2835 52.833 44.7091 52.481 45.0084 52.0293C45.3078 51.5775 45.4676 51.0465 45.4676 50.5032C45.4676 49.7747 45.1805 49.076 44.6696 48.5609C44.1587 48.0457 43.4657 47.7563 42.7431 47.7563V47.7563ZM42.7431 51.7454C42.5036 51.7454 42.2695 51.6738 42.0703 51.5396C41.8712 51.4055 41.716 51.2148 41.6244 50.9917C41.5327 50.7687 41.5087 50.5232 41.5554 50.2864C41.6022 50.0496 41.7175 49.832 41.8868 49.6613C42.0562 49.4906 42.272 49.3743 42.5068 49.3272C42.7417 49.2801 42.9852 49.3043 43.2065 49.3967C43.4277 49.4891 43.6168 49.6455 43.7499 49.8463C43.883 50.0471 43.954 50.2831 43.954 50.5246C43.956 50.6862 43.9261 50.8465 43.8662 50.9964C43.8062 51.1463 43.7173 51.2827 43.6047 51.3977C43.4921 51.5127 43.3579 51.604 43.21 51.6663C43.0621 51.7286 42.9034 51.7607 42.7431 51.7606V51.7454Z" fill="black"/>
<path d="M42.7431 55.6455C42.2042 55.6455 41.6775 55.8066 41.2294 56.1084C40.7814 56.4103 40.4322 56.8393 40.2259 57.3412C40.0197 57.8431 39.9658 58.3954 40.0709 58.9282C40.176 59.4611 40.4355 59.9505 40.8165 60.3347C41.1976 60.7188 41.683 60.9804 42.2115 61.0864C42.7401 61.1924 43.2879 61.138 43.7857 60.9301C44.2835 60.7222 44.7091 60.3701 45.0084 59.9184C45.3078 59.4667 45.4676 58.9356 45.4676 58.3924C45.4676 57.6638 45.1805 56.9652 44.6696 56.45C44.1587 55.9349 43.4657 55.6455 42.7431 55.6455ZM42.7431 59.6345C42.5036 59.6345 42.2695 59.5629 42.0703 59.4288C41.8712 59.2947 41.716 59.104 41.6244 58.8809C41.5327 58.6578 41.5087 58.4124 41.5554 58.1755C41.6022 57.9387 41.7175 57.7212 41.8868 57.5505C42.0562 57.3797 42.272 57.2635 42.5068 57.2164C42.7417 57.1693 42.9852 57.1934 43.2065 57.2858C43.4277 57.3782 43.6168 57.5347 43.7499 57.7355C43.883 57.9362 43.954 58.1723 43.954 58.4137C43.954 58.574 43.9227 58.7328 43.8618 58.8809C43.8009 59.029 43.7118 59.1636 43.5993 59.277C43.4869 59.3903 43.3534 59.4803 43.2065 59.5416C43.0596 59.603 42.9021 59.6345 42.7431 59.6345V59.6345Z" fill="black"/>
<path d="M50.6347 47.7563C50.0958 47.7563 49.5691 47.9174 49.121 48.2193C48.673 48.5211 48.3238 48.9501 48.1176 49.452C47.9113 49.9539 47.8574 50.5062 47.9625 51.0391C48.0676 51.5719 48.3271 52.0614 48.7082 52.4455C49.0892 52.8297 49.5746 53.0913 50.1032 53.1973C50.6317 53.3032 51.1795 53.2488 51.6773 53.0409C52.1751 52.833 52.6007 52.481 52.9 52.0293C53.1994 51.5775 53.3592 51.0465 53.3592 50.5032C53.3592 49.7747 53.0722 49.076 52.5612 48.5609C52.0503 48.0457 51.3573 47.7563 50.6347 47.7563V47.7563ZM50.6347 51.7454C50.3952 51.7454 50.1611 51.6738 49.9619 51.5396C49.7628 51.4055 49.6076 51.2148 49.516 50.9917C49.4243 50.7687 49.4003 50.5232 49.447 50.2864C49.4938 50.0496 49.6091 49.832 49.7784 49.6613C49.9478 49.4906 50.1636 49.3743 50.3984 49.3272C50.6333 49.2801 50.8768 49.3043 51.0981 49.3967C51.3193 49.4891 51.5084 49.6455 51.6415 49.8463C51.7746 50.0471 51.8456 50.2831 51.8456 50.5246C51.8476 50.6862 51.8177 50.8465 51.7578 50.9964C51.6978 51.1463 51.609 51.2827 51.4963 51.3977C51.3837 51.5127 51.2495 51.604 51.1016 51.6663C50.9537 51.7286 50.795 51.7607 50.6347 51.7606V51.7454Z" fill="black"/>
<path d="M50.6347 55.6455C50.0958 55.6455 49.5691 55.8066 49.121 56.1084C48.673 56.4103 48.3238 56.8393 48.1176 57.3412C47.9113 57.8431 47.8574 58.3954 47.9625 58.9282C48.0676 59.4611 48.3271 59.9505 48.7082 60.3347C49.0892 60.7188 49.5746 60.9804 50.1032 61.0864C50.6317 61.1924 51.1795 61.138 51.6773 60.9301C52.1751 60.7222 52.6007 60.3701 52.9 59.9184C53.1994 59.4667 53.3592 58.9356 53.3592 58.3924C53.3592 57.6638 53.0722 56.9652 52.5612 56.45C52.0503 55.9349 51.3573 55.6455 50.6347 55.6455ZM50.6347 59.6345C50.3952 59.6345 50.1611 59.5629 49.9619 59.4288C49.7628 59.2947 49.6076 59.104 49.516 58.8809C49.4243 58.6578 49.4003 58.4124 49.447 58.1755C49.4938 57.9387 49.6091 57.7212 49.7784 57.5505C49.9478 57.3797 50.1636 57.2635 50.3984 57.2164C50.6333 57.1693 50.8768 57.1934 51.0981 57.2858C51.3193 57.3782 51.5084 57.5347 51.6415 57.7355C51.7746 57.9362 51.8456 58.1723 51.8456 58.4137C51.8456 58.574 51.8143 58.7328 51.7534 58.8809C51.6926 59.029 51.6034 59.1636 51.4909 59.277C51.3785 59.3903 51.245 59.4803 51.0981 59.5416C50.9512 59.603 50.7937 59.6345 50.6347 59.6345V59.6345Z" fill="black"/>
<path d="M69.2462 20.715C69.2462 20.6967 69.219 20.6753 69.2008 20.657L69.1433 20.6112C66.8929 18.3644 63.8538 17.104 60.6867 17.104C57.5196 17.104 54.4805 18.3644 52.2301 20.6112C52.2106 20.6248 52.1924 20.6401 52.1756 20.657C52.1574 20.6753 52.1423 20.6967 52.1272 20.715C49.8986 22.9838 48.6484 26.0478 48.6484 29.2409C48.6484 32.434 49.8986 35.498 52.1272 37.7668C52.1272 37.7851 52.1574 37.8064 52.1756 37.8248C52.1924 37.8416 52.2106 37.857 52.2301 37.8705C54.4797 40.1188 57.5191 41.3803 60.6867 41.3803C63.8543 41.3803 66.8937 40.1188 69.1433 37.8705C69.1615 37.8553 69.1827 37.8431 69.2008 37.8248C69.219 37.8064 69.2311 37.7851 69.2462 37.7668C71.4763 35.4987 72.7274 32.4344 72.7274 29.2409C72.7274 26.0473 71.4763 22.983 69.2462 20.715V20.715ZM71.1837 28.4794H68.1262C67.9785 27.0126 67.4057 25.622 66.4793 24.4812L68.6408 22.3021C70.1303 24.0288 71.0227 26.1968 71.1837 28.4794ZM61.439 18.661C63.7023 18.8241 65.8521 19.7226 67.5661 21.2216L65.4016 23.4008C64.272 22.4661 62.8932 21.8894 61.439 21.7435V18.661ZM59.9253 18.661V21.7435C58.4704 21.8899 57.0907 22.4665 55.9597 23.4008L53.7982 21.2216C55.512 19.7222 57.662 18.8237 59.9253 18.661V18.661ZM52.7356 22.3021L54.8971 24.4812C53.9707 25.622 53.3979 27.0126 53.2503 28.4794H50.1928C50.3537 26.1968 51.2462 24.0288 52.7356 22.3021ZM50.1928 30.0054H53.2654C53.4136 31.4712 53.9864 32.8606 54.9122 34.0005L52.7356 36.195C51.2438 34.465 50.3511 32.2923 50.1928 30.0054V30.0054ZM59.9253 39.8239C57.662 39.6588 55.5124 38.7593 53.7982 37.2601L55.9597 35.081C57.0912 36.015 58.4704 36.5924 59.9253 36.7413V39.8239ZM54.7185 29.2424C54.7179 28.0531 55.0671 26.8904 55.7221 25.9012C56.377 24.912 57.3082 24.1409 58.3979 23.6854C59.4875 23.2298 60.6867 23.1103 61.8438 23.342C63.0008 23.5736 64.0637 24.146 64.898 24.9868C65.7324 25.8275 66.3007 26.8989 66.531 28.0653C66.7614 29.2317 66.6435 30.4407 66.1922 31.5395C65.7409 32.6384 64.9765 33.5776 63.9957 34.2384C63.0149 34.8992 61.8618 35.2519 60.6822 35.2519C59.1026 35.2487 57.5886 34.6144 56.472 33.488C55.3553 32.3616 54.7269 30.835 54.7245 29.2424H54.7185ZM61.439 39.8239V36.7413C62.8931 36.5931 64.2716 36.0155 65.4016 35.081L67.5661 37.2601C65.8516 38.7588 63.7022 39.6581 61.439 39.8239ZM68.6408 36.195L66.4793 34.0158C67.4052 32.8759 67.9779 31.4865 68.1262 30.0207H71.1837C71.0221 32.3022 70.1297 34.4691 68.6408 36.195V36.195Z" fill="black"/>
<path d="M36.4248 53.094H18.3794C18.1498 53.094 17.9296 53.002 17.7672 52.8383C17.6048 52.6746 17.5136 52.4526 17.5136 52.2211V10.4081C17.5136 10.1766 17.6048 9.95454 17.7672 9.79084C17.9296 9.62714 18.1498 9.53518 18.3794 9.53518H43.9445C44.1741 9.53518 44.3943 9.62714 44.5567 9.79084C44.7191 9.95454 44.8103 10.1766 44.8103 10.4081V44.0781C44.8103 44.1783 44.8299 44.2775 44.8679 44.3701C44.9059 44.4626 44.9617 44.5467 45.032 44.6176C45.1022 44.6885 45.1857 44.7447 45.2775 44.783C45.3693 44.8213 45.4677 44.8411 45.5671 44.8411C45.6665 44.8411 45.7649 44.8213 45.8567 44.783C45.9485 44.7447 46.032 44.6885 46.1022 44.6176C46.1725 44.5467 46.2283 44.4626 46.2663 44.3701C46.3043 44.2775 46.3239 44.1783 46.3239 44.0781V10.3989C46.3231 9.76293 46.0722 9.15322 45.6261 8.70352C45.1801 8.25381 44.5753 8.00081 43.9445 8H18.3794C17.7486 8.00081 17.1439 8.25381 16.6978 8.70352C16.2517 9.15322 16.0008 9.76293 16 10.3989V52.2119C16.0008 52.8479 16.2517 53.4576 16.6978 53.9073C17.1439 54.357 17.7486 54.61 18.3794 54.6108H36.4248C36.6255 54.6108 36.818 54.5305 36.96 54.3874C37.1019 54.2443 37.1816 54.0502 37.1816 53.8478C37.1816 53.6455 37.1019 53.4514 36.96 53.3083C36.818 53.1652 36.6255 53.0848 36.4248 53.0848V53.094Z" fill="black"/>
<path d="M30.7793 20.1991C29.1598 21.5298 22.9085 26.996 22.5694 32.4592C22.406 35.0138 24.2919 37.3058 26.8288 37.3852C27.4079 37.4072 27.9856 37.3133 28.5286 37.109C29.0715 36.9047 29.569 36.594 29.9922 36.1949C30.0374 36.152 30.0945 36.124 30.1559 36.1149C30.2172 36.1058 30.2799 36.1159 30.3354 36.1439C30.3909 36.1719 30.4365 36.2163 30.4661 36.2713C30.4957 36.3263 30.5078 36.3891 30.5008 36.4513L30.4615 36.7565C30.3123 37.9098 29.9553 39.0258 29.408 40.0496L28.8237 41.1453C28.7878 41.2075 28.7688 41.2781 28.7689 41.3501C28.7689 41.4221 28.7879 41.4927 28.824 41.5548C28.86 41.6169 28.9118 41.6683 28.974 41.7036C29.0362 41.7389 29.1066 41.7569 29.1779 41.7557H33.1466C33.2179 41.7565 33.2881 41.7383 33.3502 41.703C33.4122 41.6677 33.464 41.6165 33.5002 41.5546C33.5364 41.4927 33.5558 41.4223 33.5565 41.3505C33.5571 41.2786 33.539 41.2079 33.5038 41.1453L32.9166 40.0496C32.3702 39.0257 32.0142 37.9096 31.8661 36.7565L31.8237 36.4513C31.8167 36.3891 31.8288 36.3263 31.8584 36.2713C31.888 36.2163 31.9336 36.1719 31.9891 36.1439C32.0446 36.1159 32.1073 36.1058 32.1687 36.1149C32.2301 36.124 32.2872 36.152 32.3323 36.1949C32.7553 36.596 33.2529 36.9088 33.7964 37.1152C34.3398 37.3216 34.9184 37.4175 35.4988 37.3974C38.0356 37.3181 39.9186 35.0229 39.7551 32.4714C39.404 26.996 33.1678 21.5451 31.5452 20.1991C31.4371 20.1101 31.3018 20.0615 31.1623 20.0615C31.0227 20.0615 30.8874 20.1101 30.7793 20.1991V20.1991Z" fill="black"/>
<path d="M24.1251 13.8629C24.1257 14.2952 23.999 14.718 23.7612 15.0778C23.5234 15.4375 23.1851 15.7181 22.7891 15.884C22.3931 16.0498 21.9572 16.0936 21.5365 16.0096C21.1159 15.9256 20.7294 15.7177 20.426 15.4122C20.1225 15.1067 19.9158 14.7174 19.8319 14.2934C19.748 13.8694 19.7908 13.4299 19.9547 13.0304C20.1187 12.6309 20.3965 12.2894 20.753 12.0492C21.1095 11.8089 21.5287 11.6807 21.9575 11.6807C22.5319 11.6807 23.0827 11.9105 23.4891 12.3196C23.8955 12.7288 24.1242 13.2838 24.1251 13.8629V13.8629Z" fill="black"/>
</g>
<path d="M21.5996 79.0098C21.5996 79.8457 21.459 80.5762 21.1777 81.2012C20.8965 81.8223 20.498 82.2969 19.9824 82.625C19.4668 82.9531 18.8652 83.1172 18.1777 83.1172C17.5059 83.1172 16.9102 82.9531 16.3906 82.625C15.8711 82.293 15.4668 81.8223 15.1777 81.2129C14.8926 80.5996 14.7461 79.8906 14.7383 79.0859V78.4707C14.7383 77.6504 14.8809 76.9258 15.166 76.2969C15.4512 75.668 15.8535 75.1875 16.373 74.8555C16.8965 74.5195 17.4941 74.3516 18.166 74.3516C18.8496 74.3516 19.4512 74.5176 19.9707 74.8496C20.4941 75.1777 20.8965 75.6562 21.1777 76.2852C21.459 76.9102 21.5996 77.6387 21.5996 78.4707V79.0098ZM20.4805 78.459C20.4805 77.4473 20.2773 76.6719 19.8711 76.1328C19.4648 75.5898 18.8965 75.3184 18.166 75.3184C17.4551 75.3184 16.8945 75.5898 16.4844 76.1328C16.0781 76.6719 15.8691 77.4219 15.8574 78.3828V79.0098C15.8574 79.9902 16.0625 80.7617 16.4727 81.3242C16.8867 81.8828 17.4551 82.1621 18.1777 82.1621C18.9043 82.1621 19.4668 81.8984 19.8652 81.3711C20.2637 80.8398 20.4688 80.0801 20.4805 79.0918V78.459Z" fill="black"/>
<path d="M25.9824 81.5059L28.4199 74.4688H29.6504L26.4863 83H25.4902L22.332 74.4688H23.5566L25.9824 81.5059Z" fill="black"/>
<path d="M35.6211 79.0566H31.9238V82.0801H36.2188V83H30.7988V74.4688H36.1602V75.3945H31.9238V78.1367H35.6211V79.0566Z" fill="black"/>
<path d="M40.748 79.5488H38.7441V83H37.6133V74.4688H40.4375C41.3984 74.4688 42.1367 74.6875 42.6523 75.125C43.1719 75.5625 43.4316 76.1992 43.4316 77.0352C43.4316 77.5664 43.2871 78.0293 42.998 78.4238C42.7129 78.8184 42.3145 79.1133 41.8027 79.3086L43.8066 82.9297V83H42.5996L40.748 79.5488ZM38.7441 78.6289H40.4727C41.0312 78.6289 41.4746 78.4844 41.8027 78.1953C42.1348 77.9062 42.3008 77.5195 42.3008 77.0352C42.3008 76.5078 42.1426 76.1035 41.8262 75.8223C41.5137 75.541 41.0605 75.3984 40.4668 75.3945H38.7441V78.6289Z" fill="black"/>
<path d="M49.2852 78.207H50.0996C50.6113 78.1992 51.0137 78.0645 51.3066 77.8027C51.5996 77.541 51.7461 77.1875 51.7461 76.7422C51.7461 75.7422 51.248 75.2422 50.252 75.2422C49.7832 75.2422 49.4082 75.377 49.127 75.6465C48.8496 75.9121 48.7109 76.2656 48.7109 76.707H47.627C47.627 76.0312 47.873 75.4707 48.3652 75.0254C48.8613 74.5762 49.4902 74.3516 50.252 74.3516C51.0566 74.3516 51.6875 74.5645 52.1445 74.9902C52.6016 75.416 52.8301 76.0078 52.8301 76.7656C52.8301 77.1367 52.709 77.4961 52.4668 77.8438C52.2285 78.1914 51.9023 78.4512 51.4883 78.623C51.957 78.7715 52.3184 79.0176 52.5723 79.3613C52.8301 79.7051 52.959 80.125 52.959 80.6211C52.959 81.3867 52.709 81.9941 52.209 82.4434C51.709 82.8926 51.0586 83.1172 50.2578 83.1172C49.457 83.1172 48.8047 82.9004 48.3008 82.4668C47.8008 82.0332 47.5508 81.4609 47.5508 80.75H48.6406C48.6406 81.1992 48.7871 81.5586 49.0801 81.8281C49.373 82.0977 49.7656 82.2324 50.2578 82.2324C50.7812 82.2324 51.1816 82.0957 51.459 81.8223C51.7363 81.5488 51.875 81.1562 51.875 80.6445C51.875 80.1484 51.7227 79.7676 51.418 79.502C51.1133 79.2363 50.6738 79.0996 50.0996 79.0918H49.2852V78.207Z" fill="black"/>
<path d="M59.7969 79.3613C59.7969 80.6309 59.5801 81.5742 59.1465 82.1914C58.7129 82.8086 58.0352 83.1172 57.1133 83.1172C56.2031 83.1172 55.5293 82.8164 55.0918 82.2148C54.6543 81.6094 54.4277 80.707 54.4121 79.5078V78.0605C54.4121 76.8066 54.6289 75.875 55.0625 75.2656C55.4961 74.6562 56.1758 74.3516 57.1016 74.3516C58.0195 74.3516 58.6953 74.6465 59.1289 75.2363C59.5625 75.8223 59.7852 76.7285 59.7969 77.9551V79.3613ZM58.7129 77.8789C58.7129 76.9609 58.584 76.293 58.3262 75.875C58.0684 75.4531 57.6602 75.2422 57.1016 75.2422C56.5469 75.2422 56.1426 75.4512 55.8887 75.8691C55.6348 76.2871 55.5039 76.9297 55.4961 77.7969V79.5312C55.4961 80.4531 55.6289 81.1348 55.8945 81.5762C56.1641 82.0137 56.5703 82.2324 57.1133 82.2324C57.6484 82.2324 58.0449 82.0254 58.3027 81.6113C58.5645 81.1973 58.7012 80.5449 58.7129 79.6543V77.8789Z" fill="black"/>
<path d="M66.5352 79.3613C66.5352 80.6309 66.3184 81.5742 65.8848 82.1914C65.4512 82.8086 64.7734 83.1172 63.8516 83.1172C62.9414 83.1172 62.2676 82.8164 61.8301 82.2148C61.3926 81.6094 61.166 80.707 61.1504 79.5078V78.0605C61.1504 76.8066 61.3672 75.875 61.8008 75.2656C62.2344 74.6562 62.9141 74.3516 63.8398 74.3516C64.7578 74.3516 65.4336 74.6465 65.8672 75.2363C66.3008 75.8223 66.5234 76.7285 66.5352 77.9551V79.3613ZM65.4512 77.8789C65.4512 76.9609 65.3223 76.293 65.0645 75.875C64.8066 75.4531 64.3984 75.2422 63.8398 75.2422C63.2852 75.2422 62.8809 75.4512 62.627 75.8691C62.373 76.2871 62.2422 76.9297 62.2344 77.7969V79.5312C62.2344 80.4531 62.3672 81.1348 62.6328 81.5762C62.9023 82.0137 63.3086 82.2324 63.8516 82.2324C64.3867 82.2324 64.7832 82.0254 65.041 81.6113C65.3027 81.1973 65.4395 80.5449 65.4512 79.6543V77.8789Z" fill="black"/>
<path d="M73.2734 79.3613C73.2734 80.6309 73.0566 81.5742 72.623 82.1914C72.1895 82.8086 71.5117 83.1172 70.5898 83.1172C69.6797 83.1172 69.0059 82.8164 68.5684 82.2148C68.1309 81.6094 67.9043 80.707 67.8887 79.5078V78.0605C67.8887 76.8066 68.1055 75.875 68.5391 75.2656C68.9727 74.6562 69.6523 74.3516 70.5781 74.3516C71.4961 74.3516 72.1719 74.6465 72.6055 75.2363C73.0391 75.8223 73.2617 76.7285 73.2734 77.9551V79.3613ZM72.1895 77.8789C72.1895 76.9609 72.0605 76.293 71.8027 75.875C71.5449 75.4531 71.1367 75.2422 70.5781 75.2422C70.0234 75.2422 69.6191 75.4512 69.3652 75.8691C69.1113 76.2871 68.9805 76.9297 68.9727 77.7969V79.5312C68.9727 80.4531 69.1055 81.1348 69.3711 81.5762C69.6406 82.0137 70.0469 82.2324 70.5898 82.2324C71.125 82.2324 71.5215 82.0254 71.7793 81.6113C72.041 81.1973 72.1777 80.5449 72.1895 79.6543V77.8789Z" fill="black"/>
<path d="M31.0742 94.8809C30.7852 95.2949 30.3809 95.6055 29.8613 95.8125C29.3457 96.0156 28.7441 96.1172 28.0566 96.1172C27.3613 96.1172 26.7441 95.9551 26.2051 95.6309C25.666 95.3027 25.248 94.8379 24.9512 94.2363C24.6582 93.6348 24.5078 92.9375 24.5 92.1445V91.4004C24.5 90.1152 24.7988 89.1191 25.3965 88.4121C25.998 87.7051 26.8418 87.3516 27.9277 87.3516C28.8184 87.3516 29.5352 87.5801 30.0781 88.0371C30.6211 88.4902 30.9531 89.1348 31.0742 89.9707H29.9492C29.7383 88.8418 29.0664 88.2773 27.9336 88.2773C27.1797 88.2773 26.6074 88.543 26.2168 89.0742C25.8301 89.6016 25.6348 90.3672 25.6309 91.3711V92.0684C25.6309 93.0254 25.8496 93.7871 26.2871 94.3535C26.7246 94.916 27.3164 95.1973 28.0625 95.1973C28.4844 95.1973 28.8535 95.1504 29.1699 95.0566C29.4863 94.9629 29.748 94.8047 29.9551 94.582V92.666H27.9805V91.752H31.0742V94.8809Z" fill="black"/>
<path d="M37.666 93.7734H34.0918L33.2891 96H32.1289L35.3867 87.4688H36.3711L39.6348 96H38.4805L37.666 93.7734ZM34.4316 92.8477H37.332L35.8789 88.8574L34.4316 92.8477Z" fill="black"/>
<path d="M42.2363 87.4688L45.0254 94.4297L47.8145 87.4688H49.2734V96H48.1484V92.6777L48.2539 89.0918L45.4531 96H44.5918L41.7969 89.1094L41.9082 92.6777V96H40.7832V87.4688H42.2363Z" fill="black"/>
<path d="M56.082 92.0566H52.3848V95.0801H56.6797V96H51.2598V87.4688H56.6211V88.3945H52.3848V91.1367H56.082V92.0566Z" fill="black"/>
<path d="M60.5938 92.1973C59.6289 91.9199 58.9258 91.5801 58.4844 91.1777C58.0469 90.7715 57.8281 90.2715 57.8281 89.6777C57.8281 89.0059 58.0957 88.4512 58.6309 88.0137C59.1699 87.5723 59.8691 87.3516 60.7285 87.3516C61.3145 87.3516 61.8359 87.4648 62.293 87.6914C62.7539 87.918 63.1094 88.2305 63.3594 88.6289C63.6133 89.0273 63.7402 89.4629 63.7402 89.9355H62.6094C62.6094 89.4199 62.4453 89.0156 62.1172 88.7227C61.7891 88.4258 61.3262 88.2773 60.7285 88.2773C60.1738 88.2773 59.7402 88.4004 59.4277 88.6465C59.1191 88.8887 58.9648 89.2266 58.9648 89.6602C58.9648 90.0078 59.1113 90.3027 59.4043 90.5449C59.7012 90.7832 60.2031 91.002 60.9102 91.2012C61.6211 91.4004 62.1758 91.6211 62.5742 91.8633C62.9766 92.1016 63.2734 92.3809 63.4648 92.7012C63.6602 93.0215 63.7578 93.3984 63.7578 93.832C63.7578 94.5234 63.4883 95.0781 62.9492 95.4961C62.4102 95.9102 61.6895 96.1172 60.7871 96.1172C60.2012 96.1172 59.6543 96.0059 59.1465 95.7832C58.6387 95.5566 58.2461 95.248 57.9688 94.8574C57.6953 94.4668 57.5586 94.0234 57.5586 93.5273H58.6895C58.6895 94.043 58.8789 94.4512 59.2578 94.752C59.6406 95.0488 60.1504 95.1973 60.7871 95.1973C61.3809 95.1973 61.8359 95.0762 62.1523 94.834C62.4688 94.5918 62.627 94.2617 62.627 93.8438C62.627 93.4258 62.4805 93.1035 62.1875 92.877C61.8945 92.6465 61.3633 92.4199 60.5938 92.1973Z" fill="black"/>
<defs>
<clipPath id="clip0_296_8134">
<rect width="60" height="57" fill="white" transform="translate(16 8)"/>
</clipPath>
</defs>
</svg>
