<svg width="88" height="106" viewBox="0 0 88 106" fill="none" xmlns="http://www.w3.org/2000/svg">
<g clip-path="url(#clip0_296_8136)">
<path d="M60.0738 14.4652L53.7952 4.28899C53.7403 4.20091 53.6637 4.12823 53.5726 4.07783C53.4815 4.02743 53.379 4.00098 53.2748 4.00098C53.1706 4.00098 53.068 4.02743 52.977 4.07783C52.8859 4.12823 52.8093 4.20091 52.7544 4.28899L46.4483 14.4652C46.3948 14.5572 46.3665 14.6616 46.3662 14.7678C46.3659 14.8741 46.3936 14.9786 46.4466 15.0709C46.4995 15.1633 46.5758 15.2402 46.668 15.2941C46.7601 15.348 46.8648 15.377 46.9717 15.3781H49.9381C50.1004 15.3781 50.2562 15.4423 50.371 15.5564C50.4858 15.6705 50.5503 15.8254 50.5503 15.9868V25.6517C50.5503 25.8132 50.6148 25.968 50.7296 26.0821C50.8444 26.1962 51.0002 26.2604 51.1625 26.2604H55.3625C55.5249 26.2604 55.6806 26.1962 55.7955 26.0821C55.9103 25.968 55.9748 25.8132 55.9748 25.6517V16.002C55.9748 15.8406 56.0393 15.6858 56.1541 15.5716C56.2689 15.4575 56.4247 15.3934 56.587 15.3934H59.5534C59.6623 15.3932 59.7692 15.3642 59.8631 15.3093C59.957 15.2544 60.0344 15.1756 60.0875 15.081C60.1405 14.9865 60.1672 14.8795 60.1648 14.7713C60.1624 14.663 60.131 14.5574 60.0738 14.4652V14.4652Z" fill="black"/>
<path d="M40.9387 32.791C39.4857 32.791 38.0652 33.2194 36.857 34.0219C35.6488 34.8244 34.7071 35.9651 34.1511 37.2996C33.595 38.6341 33.4495 40.1026 33.733 41.5194C34.0165 42.9361 34.7162 44.2375 35.7437 45.2589C36.7712 46.2803 38.0803 46.9759 39.5054 47.2577C40.9306 47.5395 42.4078 47.3949 43.7503 46.8421C45.0928 46.2893 46.2402 45.3532 47.0475 44.1521C47.8548 42.9511 48.2857 41.539 48.2857 40.0945C48.2857 38.1575 47.5116 36.2998 46.1338 34.9302C44.756 33.5605 42.8873 32.791 40.9387 32.791V32.791ZM42.9224 43.4237C42.63 43.7047 42.2676 43.9032 41.8724 43.9989C41.8068 44.0178 41.7494 44.0581 41.7095 44.1133C41.6695 44.1684 41.6493 44.2353 41.652 44.3032V44.7292C41.652 44.8099 41.6198 44.8873 41.5623 44.9444C41.5049 45.0015 41.4271 45.0335 41.3459 45.0335H40.7122C40.631 45.0335 40.5532 45.0015 40.4957 44.9444C40.4383 44.8873 40.4061 44.8099 40.4061 44.7292V44.3184C40.4075 44.2472 40.3838 44.1777 40.3391 44.1221C40.2943 44.0665 40.2314 44.0283 40.1612 44.0141C39.7139 43.9168 39.3045 43.6927 38.9826 43.3689C38.7623 43.1303 38.5918 42.8507 38.4809 42.5462C38.3701 42.2416 38.321 41.9183 38.3367 41.5948V41.2205H39.6775V41.5948C39.6671 41.7616 39.6914 41.9287 39.7488 42.0858C39.8062 42.2428 39.8955 42.3865 40.0112 42.5077C40.2795 42.713 40.6066 42.8281 40.945 42.8363C41.2835 42.8445 41.6158 42.7454 41.8938 42.5534C41.9947 42.4706 42.0748 42.3656 42.128 42.2468C42.1811 42.128 42.2057 41.9986 42.2 41.8687C42.2036 41.7562 42.184 41.6442 42.1424 41.5395C42.1008 41.4348 42.0381 41.3397 41.9581 41.26C41.6313 40.9984 41.2542 40.8058 40.85 40.694C40.2126 40.5369 39.6252 40.223 39.1418 39.7811C38.7712 39.3749 38.5746 38.841 38.5938 38.293C38.5853 38.0062 38.6351 37.7206 38.7403 37.4533C38.8455 37.1861 39.0039 36.9428 39.2061 36.738C39.4862 36.4592 39.8359 36.2596 40.2194 36.1598C40.2839 36.1397 40.3399 36.0989 40.3786 36.0439C40.4174 35.9888 40.4367 35.9226 40.4336 35.8554V35.3655C40.4336 35.2848 40.4659 35.2074 40.5233 35.1503C40.5807 35.0932 40.6586 35.0612 40.7398 35.0612H41.3796C41.4607 35.0612 41.5386 35.0932 41.596 35.1503C41.6534 35.2074 41.6857 35.2848 41.6857 35.3655V35.8524C41.6826 35.9195 41.7019 35.9858 41.7407 36.0408C41.7795 36.0959 41.8355 36.1366 41.9 36.1567C42.3052 36.2723 42.6665 36.5054 42.9377 36.8262C43.3302 37.334 43.5287 37.9638 43.4979 38.6034V38.9747H42.1632V38.6034C42.186 38.2523 42.0769 37.9053 41.8571 37.6296C41.7543 37.5184 41.6279 37.4315 41.487 37.3752C41.3461 37.3189 41.1944 37.2945 41.0428 37.304C40.7421 37.2807 40.4442 37.3758 40.2132 37.5687C40.1205 37.6595 40.0483 37.7689 40.0013 37.8896C39.9543 38.0102 39.9337 38.1395 39.9408 38.2686C39.9316 38.3865 39.9482 38.5049 39.9894 38.6157C40.0306 38.7265 40.0955 38.8272 40.1796 38.9107C40.5009 39.163 40.8707 39.3473 41.2663 39.4524C41.7388 39.5968 42.1905 39.8014 42.6102 40.061C42.9041 40.2533 43.146 40.5146 43.3142 40.8218C43.4797 41.1458 43.5617 41.5055 43.553 41.8687C43.5616 42.1571 43.5099 42.4442 43.4014 42.7118C43.2929 42.9794 43.1298 43.2218 42.9224 43.4237V43.4237Z" fill="black"/>
<path d="M55.6823 36.8354L56.4812 37.8335C56.5101 37.8689 56.5465 37.8973 56.5878 37.9168C56.6291 37.9363 56.6743 37.9463 56.72 37.9461H58.0027C58.0492 37.945 58.0954 37.9544 58.1377 37.9737C58.1801 37.993 58.2174 38.0217 58.2469 38.0575C58.2765 38.0933 58.2974 38.1353 58.3081 38.1803C58.3188 38.2254 58.319 38.2723 58.3088 38.3174L58.0241 39.562C58.014 39.6063 58.014 39.6522 58.0241 39.6964C58.0341 39.7406 58.054 39.7821 58.0823 39.8177L58.8843 40.8158C58.9127 40.8516 58.9326 40.8932 58.9427 40.9377C58.9527 40.9821 58.9526 41.0282 58.9423 41.0726C58.932 41.117 58.9119 41.1586 58.8833 41.1942C58.8547 41.2298 58.8184 41.2586 58.7772 41.2784L57.62 41.8322C57.5786 41.8521 57.5422 41.8811 57.5136 41.9169C57.485 41.9527 57.4648 41.9945 57.4547 42.0392L57.17 43.2807C57.1599 43.3254 57.1397 43.3672 57.111 43.4031C57.0823 43.4389 57.0459 43.4678 57.0044 43.4877C56.9629 43.5076 56.9175 43.5179 56.8714 43.5179C56.8253 43.5179 56.7799 43.5076 56.7384 43.4877L55.5843 42.9338C55.5428 42.9139 55.4973 42.9035 55.4511 42.9035C55.405 42.9035 55.3595 42.9139 55.318 42.9338L54.1639 43.4877C54.1224 43.5076 54.0769 43.5179 54.0309 43.5179C53.9848 43.5179 53.9394 43.5076 53.8979 43.4877C53.8564 43.4678 53.8199 43.4389 53.7913 43.4031C53.7626 43.3672 53.7424 43.3254 53.7323 43.2807L53.4476 42.0392C53.4374 41.9945 53.4173 41.9527 53.3887 41.9169C53.3601 41.8811 53.3237 41.8521 53.2823 41.8322L52.1251 41.2784C52.0839 41.2586 52.0476 41.2298 52.019 41.1942C51.9904 41.1586 51.9702 41.117 51.96 41.0726C51.9497 41.0282 51.9495 40.9821 51.9596 40.9377C51.9696 40.8932 51.9896 40.8516 52.018 40.8158L52.82 39.8177C52.8483 39.7821 52.8681 39.7406 52.8782 39.6964C52.8883 39.6522 52.8883 39.6063 52.8782 39.562L52.5935 38.3174C52.5832 38.2723 52.5835 38.2254 52.5942 38.1803C52.6049 38.1353 52.6258 38.0933 52.6553 38.0575C52.6849 38.0217 52.7222 37.993 52.7645 37.9737C52.8069 37.9544 52.8531 37.945 52.8996 37.9461H54.1823C54.2266 37.9434 54.2699 37.9311 54.309 37.9101C54.3481 37.8891 54.3822 37.8598 54.4088 37.8244L55.2078 36.8263C55.2372 36.7918 55.2739 36.7643 55.3153 36.7457C55.3567 36.7271 55.4018 36.7179 55.4472 36.7188C55.4926 36.7197 55.5373 36.7306 55.5779 36.7508C55.6186 36.7709 55.6542 36.7998 55.6823 36.8354Z" fill="black"/>
<path d="M26.6762 36.8355L27.4691 37.8245C27.4979 37.8598 27.5343 37.8883 27.5756 37.9078C27.6169 37.9273 27.6621 37.9373 27.7078 37.9371H28.9997C29.0462 37.936 29.0924 37.9454 29.1348 37.9647C29.1771 37.984 29.2144 38.0126 29.244 38.0484C29.2735 38.0842 29.2944 38.1263 29.3051 38.1713C29.3158 38.2164 29.3161 38.2632 29.3058 38.3084L28.9997 39.5622C28.9896 39.6064 28.9896 39.6523 28.9997 39.6965C29.0097 39.7407 29.0296 39.7822 29.0578 39.8178L29.8599 40.8159C29.8883 40.8517 29.9082 40.8933 29.9183 40.9378C29.9283 40.9822 29.9282 41.0284 29.9179 41.0728C29.9076 41.1171 29.8874 41.1587 29.8589 41.1943C29.8303 41.2299 29.794 41.2587 29.7527 41.2785L28.5956 41.8323C28.5542 41.8523 28.5178 41.8812 28.4892 41.917C28.4606 41.9529 28.4404 41.9946 28.4303 42.0393L28.1456 43.2809C28.1354 43.3255 28.1153 43.3673 28.0866 43.4032C28.0579 43.439 28.0215 43.4679 27.98 43.4878C27.9385 43.5077 27.893 43.5181 27.847 43.518C27.8009 43.518 27.7555 43.5077 27.714 43.4878L26.5599 42.9339C26.5184 42.914 26.4728 42.9036 26.4267 42.9036C26.3806 42.9036 26.3351 42.914 26.2936 42.9339L25.1395 43.4878C25.098 43.5077 25.0525 43.518 25.0065 43.518C24.9604 43.5181 24.9149 43.5077 24.8735 43.4878C24.832 43.4679 24.7955 43.439 24.7669 43.4032C24.7382 43.3673 24.718 43.3255 24.7078 43.2809L24.4232 42.0393C24.413 41.9946 24.3929 41.9529 24.3643 41.917C24.3357 41.8812 24.2993 41.8523 24.2578 41.8323L23.1007 41.2785C23.0594 41.2587 23.0232 41.2299 22.9946 41.1943C22.966 41.1587 22.9458 41.1171 22.9355 41.0728C22.9253 41.0284 22.9251 40.9822 22.9352 40.9378C22.9452 40.8933 22.9652 40.8517 22.9936 40.8159L23.7956 39.8178C23.8238 39.7822 23.8437 39.7407 23.8538 39.6965C23.8638 39.6523 23.8638 39.6064 23.8538 39.5622L23.5691 38.3175C23.5588 38.2724 23.5591 38.2255 23.5698 38.1804C23.5805 38.1354 23.6014 38.0934 23.6309 38.0576C23.6604 38.0218 23.6978 37.9931 23.7401 37.9738C23.7824 37.9546 23.8286 37.9451 23.8752 37.9463H25.1578C25.2036 37.9464 25.2488 37.9364 25.2901 37.9169C25.3314 37.8974 25.3678 37.869 25.3966 37.8337L26.1956 36.8355C26.2243 36.7994 26.2608 36.7703 26.3024 36.7502C26.344 36.7301 26.3897 36.7197 26.4359 36.7197C26.4822 36.7197 26.5278 36.7301 26.5694 36.7502C26.6111 36.7703 26.6476 36.7994 26.6762 36.8355Z" fill="black"/>
<path d="M17.903 47.1699C18.3963 47.1707 18.8845 47.2681 19.3399 47.4565C19.7953 47.6449 20.209 47.9206 20.5572 48.2679C20.9054 48.6152 21.1814 49.0273 21.3694 49.4806C21.5574 49.9339 21.6538 50.4196 21.653 50.91C21.653 51.1117 21.7336 51.3052 21.8772 51.4479C22.0207 51.5906 22.2153 51.6707 22.4183 51.6707H59.4591C59.6621 51.6707 59.8568 51.5906 60.0003 51.4479C60.1438 51.3052 60.2244 51.1117 60.2244 50.91C60.226 49.9218 60.6217 48.9745 61.3246 48.2758C62.0275 47.577 62.9804 47.1837 63.9744 47.1821C64.1774 47.1821 64.3721 47.102 64.5156 46.9593C64.6591 46.8166 64.7397 46.6231 64.7397 46.4213V33.7924C64.7397 33.5906 64.6591 33.3971 64.5156 33.2544C64.3721 33.1117 64.1774 33.0316 63.9744 33.0316C62.9801 33.0308 62.0268 32.6378 61.3237 31.9388C60.6206 31.2399 60.2252 30.2922 60.2244 29.3038C60.2244 29.102 60.1438 28.9085 60.0003 28.7658C59.8568 28.6231 59.6621 28.543 59.4591 28.543H22.4183C22.2153 28.543 22.0207 28.6231 21.8772 28.7658C21.7336 28.9085 21.653 29.102 21.653 29.3038C21.6522 30.2922 21.2568 31.2399 20.5538 31.9388C19.8507 32.6378 18.8973 33.0308 17.903 33.0316C17.7 33.0316 17.5054 33.1117 17.3618 33.2544C17.2183 33.3971 17.1377 33.5906 17.1377 33.7924V46.4213C17.1409 46.621 17.223 46.8114 17.3661 46.9514C17.5093 47.0915 17.7021 47.17 17.903 47.1699V47.1699ZM18.6683 34.4771C19.7921 34.3121 20.8327 33.7918 21.6359 32.9933C22.4392 32.1948 22.9625 31.1604 23.1285 30.0432H58.7489C58.9149 31.1604 59.4382 32.1948 60.2415 32.9933C61.0448 33.7918 62.0853 34.3121 63.2091 34.4771V45.694C62.0857 45.8599 61.0457 46.3805 60.2426 47.1788C59.4395 47.9772 58.9158 49.0111 58.7489 50.1279H23.1285C22.9616 49.0111 22.438 47.9772 21.6349 47.1788C20.8318 46.3805 19.7917 45.8599 18.6683 45.694V34.4771Z" fill="black"/>
<path d="M67.1123 25.4878H14.7654C14.6639 25.4878 14.5633 25.5079 14.4697 25.5468C14.376 25.5858 14.2911 25.643 14.2199 25.7149C14.1486 25.7868 14.0925 25.8722 14.0548 25.9659C14.0171 26.0596 13.9985 26.1598 14.0001 26.2607V53.9532C14.0001 54.155 14.0807 54.3485 14.2243 54.4911C14.3678 54.6338 14.5624 54.714 14.7654 54.714H67.1123C67.3153 54.714 67.51 54.6338 67.6535 54.4911C67.797 54.3485 67.8776 54.155 67.8776 53.9532V26.2607C67.8793 26.1598 67.8607 26.0596 67.8229 25.9659C67.7852 25.8722 67.7291 25.7868 67.6579 25.7149C67.5866 25.643 67.5017 25.5858 67.4081 25.5468C67.3144 25.5079 67.2139 25.4878 67.1123 25.4878V25.4878ZM66.347 53.1802H15.5307V27.0094H66.347V53.1802Z" fill="black"/>
<path d="M20.8874 20.9229H48.2853C48.4883 20.9229 48.683 20.8428 48.8265 20.7001C48.97 20.5574 49.0506 20.3639 49.0506 20.1621C49.0506 19.9604 48.97 19.7669 48.8265 19.6242C48.683 19.4815 48.4883 19.4014 48.2853 19.4014H20.8874C20.6844 19.4014 20.4897 19.4815 20.3462 19.6242C20.2027 19.7669 20.1221 19.9604 20.1221 20.1621C20.1221 20.3639 20.2027 20.5574 20.3462 20.7001C20.4897 20.8428 20.6844 20.9229 20.8874 20.9229V20.9229Z" fill="black"/>
<path d="M73.235 19.4014H58.235C58.0321 19.4014 57.8374 19.4815 57.6939 19.6242C57.5504 19.7669 57.4697 19.9604 57.4697 20.1621C57.4697 20.3639 57.5504 20.5574 57.6939 20.7001C57.8374 20.8428 58.0321 20.9229 58.235 20.9229H72.4697V47.8668C72.4697 48.0685 72.5504 48.262 72.6939 48.4047C72.8374 48.5474 73.0321 48.6276 73.235 48.6276C73.438 48.6276 73.6327 48.5474 73.7762 48.4047C73.9197 48.262 74.0003 48.0685 74.0003 47.8668V20.1743C74.002 20.0734 73.9834 19.9732 73.9456 19.8794C73.9079 19.7857 73.8518 19.7004 73.7806 19.6285C73.7093 19.5565 73.6244 19.4994 73.5308 19.4604C73.4371 19.4214 73.3366 19.4014 73.235 19.4014V19.4014Z" fill="black"/>
<path d="M17.8268 23.9659H48.286C48.489 23.9659 48.6836 23.8857 48.8272 23.7431C48.9707 23.6004 49.0513 23.4069 49.0513 23.2051C49.0513 23.0033 48.9707 22.8098 48.8272 22.6672C48.6836 22.5245 48.489 22.4443 48.286 22.4443H17.8268C17.6239 22.4443 17.4292 22.5245 17.2857 22.6672C17.1422 22.8098 17.0615 23.0033 17.0615 23.2051C17.0615 23.4069 17.1422 23.6004 17.2857 23.7431C17.4292 23.8857 17.6239 23.9659 17.8268 23.9659V23.9659Z" fill="black"/>
<path d="M70.1738 22.4443H58.235C58.0321 22.4443 57.8374 22.5245 57.6939 22.6672C57.5504 22.8098 57.4697 23.0033 57.4697 23.2051C57.4697 23.4069 57.5504 23.6004 57.6939 23.7431C57.8374 23.8857 58.0321 23.9659 58.235 23.9659H69.4085V50.9097C69.4085 51.1115 69.4891 51.305 69.6327 51.4477C69.7762 51.5904 69.9708 51.6705 70.1738 51.6705C70.3768 51.6705 70.5714 51.5904 70.715 51.4477C70.8585 51.305 70.9391 51.1115 70.9391 50.9097V23.2173C70.9407 23.1164 70.9221 23.0161 70.8844 22.9224C70.8467 22.8287 70.7906 22.7434 70.7193 22.6715C70.6481 22.5995 70.5632 22.5424 70.4695 22.5034C70.3759 22.4644 70.2753 22.4443 70.1738 22.4443V22.4443Z" fill="black"/>
</g>
<path d="M7.34961 79.2324H3.76953V83H2.64453V74.4688H7.92969V75.3945H3.76953V78.3125H7.34961V79.2324Z" fill="black"/>
<path d="M12.9922 80.7734H9.41797L8.61523 83H7.45508L10.7129 74.4688H11.6973L14.9609 83H13.8066L12.9922 80.7734ZM9.75781 79.8477H12.6582L11.2051 75.8574L9.75781 79.8477Z" fill="black"/>
<path d="M18.623 79.1973C17.6582 78.9199 16.9551 78.5801 16.5137 78.1777C16.0762 77.7715 15.8574 77.2715 15.8574 76.6777C15.8574 76.0059 16.125 75.4512 16.6602 75.0137C17.1992 74.5723 17.8984 74.3516 18.7578 74.3516C19.3438 74.3516 19.8652 74.4648 20.3223 74.6914C20.7832 74.918 21.1387 75.2305 21.3887 75.6289C21.6426 76.0273 21.7695 76.4629 21.7695 76.9355H20.6387C20.6387 76.4199 20.4746 76.0156 20.1465 75.7227C19.8184 75.4258 19.3555 75.2773 18.7578 75.2773C18.2031 75.2773 17.7695 75.4004 17.457 75.6465C17.1484 75.8887 16.9941 76.2266 16.9941 76.6602C16.9941 77.0078 17.1406 77.3027 17.4336 77.5449C17.7305 77.7832 18.2324 78.002 18.9395 78.2012C19.6504 78.4004 20.2051 78.6211 20.6035 78.8633C21.0059 79.1016 21.3027 79.3809 21.4941 79.7012C21.6895 80.0215 21.7871 80.3984 21.7871 80.832C21.7871 81.5234 21.5176 82.0781 20.9785 82.4961C20.4395 82.9102 19.7188 83.1172 18.8164 83.1172C18.2305 83.1172 17.6836 83.0059 17.1758 82.7832C16.668 82.5566 16.2754 82.248 15.998 81.8574C15.7246 81.4668 15.5879 81.0234 15.5879 80.5273H16.7188C16.7188 81.043 16.9082 81.4512 17.2871 81.752C17.6699 82.0488 18.1797 82.1973 18.8164 82.1973C19.4102 82.1973 19.8652 82.0762 20.1816 81.834C20.498 81.5918 20.6562 81.2617 20.6562 80.8438C20.6562 80.4258 20.5098 80.1035 20.2168 79.877C19.9238 79.6465 19.3926 79.4199 18.623 79.1973Z" fill="black"/>
<path d="M29.1289 75.3945H26.3867V83H25.2676V75.3945H22.5312V74.4688H29.1289V75.3945Z" fill="black"/>
<path d="M32.7383 80.709C32.7383 80.2988 32.8516 79.9219 33.0781 79.5781C33.3086 79.2344 33.7461 78.834 34.3906 78.377C34.0117 77.916 33.7578 77.5449 33.6289 77.2637C33.5 76.9824 33.4355 76.7031 33.4355 76.4258C33.4355 75.7773 33.627 75.2695 34.0098 74.9023C34.3926 74.5352 34.9121 74.3516 35.5684 74.3516C36.1543 74.3516 36.6387 74.5234 37.0215 74.8672C37.4043 75.207 37.5957 75.6367 37.5957 76.1562C37.5957 76.5 37.5078 76.8184 37.332 77.1113C37.1602 77.4004 36.8574 77.7051 36.4238 78.0254L35.7969 78.4883L37.6953 80.7559C37.9609 80.248 38.0938 79.6836 38.0938 79.0625H39.0723C39.0723 80.0586 38.832 80.8848 38.3516 81.541L39.5703 83H38.2695L37.7012 82.3262C37.4121 82.584 37.0723 82.7812 36.6816 82.918C36.2949 83.0508 35.9004 83.1172 35.498 83.1172C34.666 83.1172 33.998 82.8965 33.4941 82.4551C32.9902 82.0137 32.7383 81.4316 32.7383 80.709ZM35.498 82.2324C36.0723 82.2324 36.5977 82.0137 37.0742 81.5762L34.9941 79.0859L34.8008 79.2266C34.1484 79.707 33.8223 80.2012 33.8223 80.709C33.8223 81.1699 33.9707 81.5391 34.2676 81.8164C34.5684 82.0938 34.9785 82.2324 35.498 82.2324ZM34.5195 76.3906C34.5195 76.7656 34.75 77.2344 35.2109 77.7969L35.9023 77.3105C36.168 77.123 36.3496 76.9453 36.4473 76.7773C36.5449 76.6055 36.5938 76.3984 36.5938 76.1562C36.5938 75.8945 36.4961 75.6777 36.3008 75.5059C36.1055 75.3301 35.8594 75.2422 35.5625 75.2422C35.2422 75.2422 34.9883 75.3516 34.8008 75.5703C34.6133 75.7852 34.5195 76.0586 34.5195 76.3906Z" fill="black"/>
<path d="M46.0918 79.1973C45.127 78.9199 44.4238 78.5801 43.9824 78.1777C43.5449 77.7715 43.3262 77.2715 43.3262 76.6777C43.3262 76.0059 43.5938 75.4512 44.1289 75.0137C44.668 74.5723 45.3672 74.3516 46.2266 74.3516C46.8125 74.3516 47.334 74.4648 47.791 74.6914C48.252 74.918 48.6074 75.2305 48.8574 75.6289C49.1113 76.0273 49.2383 76.4629 49.2383 76.9355H48.1074C48.1074 76.4199 47.9434 76.0156 47.6152 75.7227C47.2871 75.4258 46.8242 75.2773 46.2266 75.2773C45.6719 75.2773 45.2383 75.4004 44.9258 75.6465C44.6172 75.8887 44.4629 76.2266 44.4629 76.6602C44.4629 77.0078 44.6094 77.3027 44.9023 77.5449C45.1992 77.7832 45.7012 78.002 46.4082 78.2012C47.1191 78.4004 47.6738 78.6211 48.0723 78.8633C48.4746 79.1016 48.7715 79.3809 48.9629 79.7012C49.1582 80.0215 49.2559 80.3984 49.2559 80.832C49.2559 81.5234 48.9863 82.0781 48.4473 82.4961C47.9082 82.9102 47.1875 83.1172 46.2852 83.1172C45.6992 83.1172 45.1523 83.0059 44.6445 82.7832C44.1367 82.5566 43.7441 82.248 43.4668 81.8574C43.1934 81.4668 43.0566 81.0234 43.0566 80.5273H44.1875C44.1875 81.043 44.377 81.4512 44.7559 81.752C45.1387 82.0488 45.6484 82.1973 46.2852 82.1973C46.8789 82.1973 47.334 82.0762 47.6504 81.834C47.9668 81.5918 48.125 81.2617 48.125 80.8438C48.125 80.4258 47.9785 80.1035 47.6855 79.877C47.3926 79.6465 46.8613 79.4199 46.0918 79.1973Z" fill="black"/>
<path d="M55.5254 79.0566H51.8281V82.0801H56.123V83H50.7031V74.4688H56.0645V75.3945H51.8281V78.1367H55.5254V79.0566Z" fill="black"/>
<path d="M63.7988 80.293C63.6934 81.1953 63.3594 81.8926 62.7969 82.3848C62.2383 82.873 61.4941 83.1172 60.5645 83.1172C59.5566 83.1172 58.748 82.7559 58.1387 82.0332C57.5332 81.3105 57.2305 80.3438 57.2305 79.1328V78.3125C57.2305 77.5195 57.3711 76.8223 57.6523 76.2207C57.9375 75.6191 58.3398 75.1582 58.8594 74.8379C59.3789 74.5137 59.9805 74.3516 60.6641 74.3516C61.5703 74.3516 62.2969 74.6055 62.8438 75.1133C63.3906 75.6172 63.709 76.3164 63.7988 77.2109H62.668C62.5703 76.5312 62.3574 76.0391 62.0293 75.7344C61.7051 75.4297 61.25 75.2773 60.6641 75.2773C59.9453 75.2773 59.3809 75.543 58.9707 76.0742C58.5645 76.6055 58.3613 77.3613 58.3613 78.3418V79.168C58.3613 80.0938 58.5547 80.8301 58.9414 81.377C59.3281 81.9238 59.8691 82.1973 60.5645 82.1973C61.1895 82.1973 61.668 82.0566 62 81.7754C62.3359 81.4902 62.5586 80.9961 62.668 80.293H63.7988Z" fill="black"/>
<path d="M71.3457 74.4688V80.2695C71.3418 81.0742 71.0879 81.7324 70.584 82.2441C70.084 82.7559 69.4043 83.043 68.5449 83.1055L68.2461 83.1172C67.3125 83.1172 66.5684 82.8652 66.0137 82.3613C65.459 81.8574 65.1777 81.1641 65.1699 80.2812V74.4688H66.2832V80.2461C66.2832 80.8633 66.4531 81.3438 66.793 81.6875C67.1328 82.0273 67.6172 82.1973 68.2461 82.1973C68.8828 82.1973 69.3691 82.0273 69.7051 81.6875C70.0449 81.3477 70.2148 80.8691 70.2148 80.252V74.4688H71.3457Z" fill="black"/>
<path d="M76.25 79.5488H74.2461V83H73.1152V74.4688H75.9395C76.9004 74.4688 77.6387 74.6875 78.1543 75.125C78.6738 75.5625 78.9336 76.1992 78.9336 77.0352C78.9336 77.5664 78.7891 78.0293 78.5 78.4238C78.2148 78.8184 77.8164 79.1133 77.3047 79.3086L79.3086 82.9297V83H78.1016L76.25 79.5488ZM74.2461 78.6289H75.9746C76.5332 78.6289 76.9766 78.4844 77.3047 78.1953C77.6367 77.9062 77.8027 77.5195 77.8027 77.0352C77.8027 76.5078 77.6445 76.1035 77.3281 75.8223C77.0156 75.541 76.5625 75.3984 75.9688 75.3945H74.2461V78.6289Z" fill="black"/>
<path d="M85.3379 79.0566H81.6406V82.0801H85.9355V83H80.5156V74.4688H85.877V75.3945H81.6406V78.1367H85.3379V79.0566Z" fill="black"/>
<path d="M15.5586 92.6602V96H14.4336V87.4688H17.5801C18.5137 87.4688 19.2441 87.707 19.7715 88.1836C20.3027 88.6602 20.5684 89.291 20.5684 90.0762C20.5684 90.9043 20.3086 91.543 19.7891 91.9922C19.2734 92.4375 18.5332 92.6602 17.5684 92.6602H15.5586ZM15.5586 91.7402H17.5801C18.1816 91.7402 18.6426 91.5996 18.9629 91.3184C19.2832 91.0332 19.4434 90.623 19.4434 90.0879C19.4434 89.5801 19.2832 89.1738 18.9629 88.8691C18.6426 88.5645 18.2031 88.4062 17.6445 88.3945H15.5586V91.7402Z" fill="black"/>
<path d="M25.9062 93.7734H22.332L21.5293 96H20.3691L23.627 87.4688H24.6113L27.875 96H26.7207L25.9062 93.7734ZM22.6719 92.8477H25.5723L24.1191 88.8574L22.6719 92.8477Z" fill="black"/>
<path d="M31.0742 91.752L33.3008 87.4688H34.5781L31.6367 92.8184V96H30.5117V92.8184L27.5703 87.4688H28.8594L31.0742 91.752Z" fill="black"/>
<path d="M37.1328 87.4688L39.9219 94.4297L42.7109 87.4688H44.1699V96H43.0449V92.6777L43.1504 89.0918L40.3496 96H39.4883L36.6934 89.1094L36.8047 92.6777V96H35.6797V87.4688H37.1328Z" fill="black"/>
<path d="M50.9785 92.0566H47.2812V95.0801H51.5762V96H46.1562V87.4688H51.5176V88.3945H47.2812V91.1367H50.9785V92.0566Z" fill="black"/>
<path d="M59.5332 96H58.4023L54.1074 89.4258V96H52.9766V87.4688H54.1074L58.4141 94.0723V87.4688H59.5332V96Z" fill="black"/>
<path d="M67.25 88.3945H64.5078V96H63.3887V88.3945H60.6523V87.4688H67.25V88.3945Z" fill="black"/>
<path d="M70.9355 92.1973C69.9707 91.9199 69.2676 91.5801 68.8262 91.1777C68.3887 90.7715 68.1699 90.2715 68.1699 89.6777C68.1699 89.0059 68.4375 88.4512 68.9727 88.0137C69.5117 87.5723 70.2109 87.3516 71.0703 87.3516C71.6562 87.3516 72.1777 87.4648 72.6348 87.6914C73.0957 87.918 73.4512 88.2305 73.7012 88.6289C73.9551 89.0273 74.082 89.4629 74.082 89.9355H72.9512C72.9512 89.4199 72.7871 89.0156 72.459 88.7227C72.1309 88.4258 71.668 88.2773 71.0703 88.2773C70.5156 88.2773 70.082 88.4004 69.7695 88.6465C69.4609 88.8887 69.3066 89.2266 69.3066 89.6602C69.3066 90.0078 69.4531 90.3027 69.7461 90.5449C70.043 90.7832 70.5449 91.002 71.252 91.2012C71.9629 91.4004 72.5176 91.6211 72.916 91.8633C73.3184 92.1016 73.6152 92.3809 73.8066 92.7012C74.002 93.0215 74.0996 93.3984 74.0996 93.832C74.0996 94.5234 73.8301 95.0781 73.291 95.4961C72.752 95.9102 72.0312 96.1172 71.1289 96.1172C70.543 96.1172 69.9961 96.0059 69.4883 95.7832C68.9805 95.5566 68.5879 95.248 68.3105 94.8574C68.0371 94.4668 67.9004 94.0234 67.9004 93.5273H69.0312C69.0312 94.043 69.2207 94.4512 69.5996 94.752C69.9824 95.0488 70.4922 95.1973 71.1289 95.1973C71.7227 95.1973 72.1777 95.0762 72.4941 94.834C72.8105 94.5918 72.9688 94.2617 72.9688 93.8438C72.9688 93.4258 72.8223 93.1035 72.5293 92.877C72.2363 92.6465 71.7051 92.4199 70.9355 92.1973Z" fill="black"/>
<defs>
<clipPath id="clip0_296_8136">
<rect width="60" height="64" fill="white" transform="translate(14 4)"/>
</clipPath>
</defs>
</svg>
