<svg width="88" height="106" viewBox="0 0 88 106" fill="none" xmlns="http://www.w3.org/2000/svg">
<g clip-path="url(#clip0_296_8137)">
<path d="M43.089 21.9028C40.2865 21.9028 37.5468 22.7328 35.2166 24.2878C32.8863 25.8427 31.0701 28.0528 29.9976 30.6387C28.9251 33.2245 28.6445 36.0698 29.1912 38.8149C29.738 41.56 31.0876 44.0815 33.0693 46.0606C35.051 48.0397 37.5759 49.3875 40.3246 49.9335C43.0733 50.4795 45.9225 50.1993 48.5117 49.1282C51.101 48.0571 53.314 46.2433 54.871 43.9161C56.4281 41.589 57.2591 38.853 57.2591 36.0541C57.2549 32.3023 55.7607 28.7053 53.1042 26.0523C50.4477 23.3993 46.8459 21.907 43.089 21.9028ZM43.089 48.8829C40.5484 48.8829 38.0648 48.1305 35.9523 46.7208C33.8398 45.3112 32.1934 43.3076 31.2211 40.9635C30.2488 38.6193 29.9944 36.0399 30.4901 33.5514C30.9857 31.0628 32.2092 28.777 34.0057 26.9828C35.8022 25.1887 38.0911 23.9669 40.583 23.4719C43.0748 22.9769 45.6577 23.2309 48.0049 24.2019C50.3522 25.1729 52.3584 26.8172 53.7699 28.9269C55.1814 31.0365 55.9348 33.5168 55.9348 36.0541C55.9306 39.4552 54.5759 42.7158 52.1677 45.1208C49.7596 47.5257 46.4947 48.8787 43.089 48.8829Z" fill="black"/>
<path d="M70.5937 47.3306L67.2379 45.9128L67.2644 45.8599C68.8514 41.9332 69.4577 37.6798 69.0309 33.4668C68.6042 29.2539 67.1571 25.2079 64.8148 21.6782C62.4724 18.1485 59.3051 15.2412 55.5863 13.2071C51.8674 11.173 47.7087 10.0733 43.4692 10.0029H43.0958C36.4023 10.0112 29.968 12.5884 25.1239 17.2015C20.2797 21.8146 17.3963 28.1106 17.0701 34.7872C16.7438 41.4639 18.9997 48.0104 23.3711 53.0725C27.7424 58.1347 33.8949 61.3253 40.5557 61.9844C40.644 61.9893 40.7324 61.9893 40.8206 61.9844C41.5463 61.9852 42.2462 61.7154 42.7832 61.2279C43.2058 60.8462 43.5084 60.3503 43.6543 59.8002C43.8003 59.2502 43.7834 58.6697 43.6057 58.1291C43.428 57.5885 43.097 57.1109 42.653 56.7544C42.2089 56.3978 41.6709 56.1775 41.104 56.1202C30.6446 55.1019 22.6431 46.0689 22.8921 35.5546C22.9675 32.6596 23.666 29.8148 24.9402 27.2133C26.2144 24.6119 28.0344 22.3149 30.2765 20.4784C32.5186 18.6419 35.1303 17.3089 37.9342 16.57C40.738 15.8312 43.6682 15.7037 46.5258 16.1964C49.3833 16.689 52.1012 17.7902 54.4947 19.4251C56.8882 21.0599 58.9013 23.1902 60.3971 25.6712C61.893 28.1521 62.8365 30.9255 63.1636 33.803C63.4907 36.6805 63.1938 39.5945 62.2929 42.3472C62.2407 42.5131 62.2559 42.6929 62.3355 42.8477C62.4151 43.0024 62.5525 43.1197 62.7179 43.1739C62.8834 43.2282 63.0637 43.2152 63.2196 43.1377C63.3755 43.0602 63.4946 42.9244 63.551 42.7598C64.9412 38.5283 64.9817 33.9701 63.6667 29.7146C62.3518 25.4592 59.7463 21.7164 56.2101 19.0031C52.6739 16.2898 48.3815 14.7399 43.9254 14.5673C39.4694 14.3947 35.0696 15.6079 31.3336 18.0396C27.5976 20.4712 24.7097 24.0012 23.0687 28.1422C21.4276 32.2831 21.1144 36.8308 22.1723 41.1571C23.2302 45.4835 25.6069 49.3751 28.9744 52.2947C32.3418 55.2142 36.5338 57.0177 40.9716 57.456C41.3706 57.4949 41.7407 57.6809 42.0096 57.9779C42.2785 58.2748 42.4269 58.6612 42.4257 59.0616C42.4263 59.2884 42.3795 59.5128 42.2883 59.7205C42.1971 59.9282 42.0634 60.1146 41.8959 60.2677C41.7321 60.4169 41.5389 60.5303 41.3286 60.6004C41.1183 60.6706 40.8956 60.696 40.6749 60.6751C35.5011 60.1653 30.6194 58.0416 26.7221 54.6053C22.8248 51.1689 20.1098 46.5944 18.9622 41.5304C17.8146 36.4665 18.2926 31.1703 20.3285 26.3929C22.3643 21.6155 25.8547 17.5995 30.3044 14.9146C34.7542 12.2296 39.9375 11.0119 45.1192 11.4343C50.3009 11.8566 55.2179 13.8976 59.1728 17.2676C63.1277 20.6376 65.9198 25.1656 67.153 30.2094C68.3863 35.2533 67.998 40.5568 66.0434 45.3679C66.0422 45.3811 66.0422 45.3944 66.0434 45.4076L57.8459 41.9425C57.7342 41.8952 57.6116 41.8794 57.4916 41.8969C57.3715 41.9144 57.2586 41.9645 57.1651 42.0418C57.0716 42.119 57.0012 42.2204 56.9615 42.3349C56.9218 42.4494 56.9144 42.5726 56.9401 42.6911L59.541 54.8453C59.563 54.9508 59.6108 55.0493 59.6801 55.1319C59.7494 55.2145 59.8381 55.2787 59.9383 55.3188C60.017 55.3524 60.1017 55.3695 60.1873 55.369C60.3183 55.3693 60.4465 55.3307 60.5554 55.2579L70.7208 48.4971C70.82 48.4303 70.8992 48.338 70.9502 48.23C71.0013 48.122 71.0222 48.0023 71.0108 47.8834C70.9994 47.7646 70.9561 47.651 70.8855 47.5546C70.8149 47.4582 70.7196 47.3827 70.6096 47.3359L70.5937 47.3306ZM60.6164 53.6127L58.4842 43.6512L68.9463 48.0712L60.6164 53.6127Z" fill="black"/>
<circle cx="43" cy="36" r="13" fill="black"/>
<path d="M47.4426 37.3899C47.1317 36.8228 46.6871 36.3398 46.1474 35.9827C45.3753 35.5047 44.5436 35.1303 43.6736 34.8691C42.4791 34.4618 41.9281 34.0994 41.6765 33.8667C41.5219 33.7115 41.4026 33.5248 41.3267 33.3194C41.2509 33.114 41.2202 32.8947 41.2369 32.6764C41.223 32.438 41.2605 32.1994 41.3468 31.9767C41.4332 31.754 41.5664 31.5524 41.7374 31.3856C42.0871 31.0576 42.5876 30.8962 43.2683 30.8962C43.5466 30.8792 43.8252 30.9245 44.0836 31.0288C44.3421 31.1332 44.5739 31.2939 44.7622 31.4993C45.1673 32.0071 45.3684 32.6474 45.3263 33.2953V33.7185C45.3263 33.7887 45.3542 33.856 45.4039 33.9056C45.4536 33.9552 45.5209 33.983 45.5912 33.983H47.5141C47.5843 33.983 47.6517 33.9552 47.7014 33.9056C47.751 33.856 47.7789 33.7887 47.7789 33.7185V33.2953C47.7789 31.9384 47.432 30.8354 46.746 30.0154C46.2038 29.3711 45.4683 28.9185 44.6483 28.7246C44.589 28.7106 44.5364 28.6767 44.4992 28.6285C44.4621 28.5803 44.4427 28.5209 44.4443 28.4601V27.0238C44.4443 26.9536 44.4164 26.8864 44.3667 26.8368C44.3171 26.7871 44.2497 26.7593 44.1795 26.7593H42.4102C42.3399 26.7593 42.2726 26.7871 42.2229 26.8368C42.1732 26.8864 42.1453 26.9536 42.1453 27.0238V28.4574C42.1467 28.5189 42.1266 28.579 42.0884 28.6273C42.0502 28.6756 41.9963 28.709 41.9361 28.7219C41.1598 28.8903 40.4483 29.2777 39.8861 29.8382C39.5189 30.2182 39.2321 30.6681 39.0428 31.1612C38.8535 31.6543 38.7656 32.1804 38.7842 32.7081C38.7486 33.7201 39.1097 34.7061 39.7907 35.4564C40.429 36.1388 41.462 36.6969 42.9346 37.1572C44.1742 37.5857 44.7251 37.9639 44.974 38.2152C45.1233 38.365 45.2397 38.5442 45.3158 38.7414C45.392 38.9386 45.4262 39.1494 45.4164 39.3605C45.4268 39.6004 45.3809 39.8393 45.2825 40.0584C45.1841 40.2774 45.0359 40.4705 44.8496 40.6222C44.3848 40.994 43.7994 41.1822 43.2048 41.1513C42.4102 41.1513 41.809 40.9529 41.3905 40.5455C40.972 40.1382 40.776 39.5854 40.776 38.8341V38.3792C40.776 38.309 40.7481 38.2418 40.6984 38.1922C40.6487 38.1425 40.5814 38.1147 40.5111 38.1147H38.5803C38.51 38.1147 38.4427 38.1425 38.393 38.1922C38.3433 38.2418 38.3154 38.309 38.3154 38.3792V38.8024C38.3154 40.1646 38.7127 41.2703 39.502 42.0823C40.1542 42.7331 40.9927 43.1657 41.9017 43.3202C41.9634 43.3315 42.0191 43.3643 42.0588 43.4127C42.0986 43.4611 42.1199 43.5221 42.1188 43.5847V44.8782C42.1188 44.9484 42.1467 45.0156 42.1964 45.0652C42.2461 45.1148 42.3135 45.1427 42.3837 45.1427H44.145C44.2153 45.1427 44.2826 45.1148 44.3323 45.0652C44.382 45.0156 44.4099 44.9484 44.4099 44.8782V43.5556C44.4086 43.4938 44.4292 43.4334 44.4679 43.3851C44.5066 43.3367 44.5611 43.3035 44.6218 43.2911C45.4189 43.1309 46.1538 42.7474 46.7407 42.1855C47.1179 41.8096 47.4132 41.3599 47.6083 40.8647C47.8034 40.3695 47.8939 39.8394 47.8743 39.3076C47.8877 38.6429 47.7395 37.9849 47.4426 37.3899Z" fill="white"/>
</g>
<path d="M13.6133 83H12.5234V75.7754L10.3379 76.5781V75.5938L13.4434 74.4277H13.6133V83Z" fill="black"/>
<path d="M17.2871 78.7227L17.7207 74.4688H22.0918V75.4707H18.6406L18.3828 77.7969C18.8008 77.5508 19.2754 77.4277 19.8066 77.4277C20.584 77.4277 21.2012 77.6855 21.6582 78.2012C22.1152 78.7129 22.3438 79.4062 22.3438 80.2812C22.3438 81.1602 22.1055 81.8535 21.6289 82.3613C21.1562 82.8652 20.4941 83.1172 19.6426 83.1172C18.8887 83.1172 18.2734 82.9082 17.7969 82.4902C17.3203 82.0723 17.0488 81.4941 16.9824 80.7559H18.0078C18.0742 81.2441 18.248 81.6133 18.5293 81.8633C18.8105 82.1094 19.1816 82.2324 19.6426 82.2324C20.1465 82.2324 20.541 82.0605 20.8262 81.7168C21.1152 81.373 21.2598 80.8984 21.2598 80.293C21.2598 79.7227 21.1035 79.2656 20.791 78.9219C20.4824 78.5742 20.0703 78.4004 19.5547 78.4004C19.082 78.4004 18.7109 78.5039 18.4414 78.7109L18.1543 78.9453L17.2871 78.7227Z" fill="black"/>
<path d="M23.4336 76.1094C23.4336 75.5977 23.5957 75.1758 23.9199 74.8438C24.248 74.5117 24.668 74.3457 25.1797 74.3457C25.6992 74.3457 26.1191 74.5137 26.4395 74.8496C26.7637 75.1816 26.9258 75.6133 26.9258 76.1445V76.5605C26.9258 77.0762 26.7617 77.498 26.4336 77.8262C26.1094 78.1504 25.6953 78.3125 25.1914 78.3125C24.6836 78.3125 24.2637 78.1504 23.9316 77.8262C23.5996 77.498 23.4336 77.0625 23.4336 76.5195V76.1094ZM24.2422 76.5605C24.2422 76.8652 24.3281 77.1172 24.5 77.3164C24.6719 77.5117 24.9023 77.6094 25.1914 77.6094C25.4688 77.6094 25.6914 77.5137 25.8594 77.3223C26.0312 77.1309 26.1172 76.8691 26.1172 76.5371V76.1094C26.1172 75.8047 26.0332 75.5527 25.8652 75.3535C25.6973 75.1543 25.4688 75.0547 25.1797 75.0547C24.8906 75.0547 24.6621 75.1543 24.4941 75.3535C24.3262 75.5527 24.2422 75.8125 24.2422 76.1328V76.5605ZM27.5879 80.9082C27.5879 80.3965 27.75 79.9766 28.0742 79.6484C28.4023 79.3164 28.8223 79.1504 29.334 79.1504C29.8457 79.1504 30.2656 79.3145 30.5938 79.6426C30.9219 79.9707 31.0859 80.4062 31.0859 80.9492V81.3652C31.0859 81.877 30.9219 82.2988 30.5938 82.6309C30.2695 82.959 29.8535 83.123 29.3457 83.123C28.8379 83.123 28.418 82.9609 28.0859 82.6367C27.7539 82.3086 27.5879 81.873 27.5879 81.3301V80.9082ZM28.3965 81.3652C28.3965 81.6738 28.4824 81.9277 28.6543 82.127C28.8262 82.3223 29.0566 82.4199 29.3457 82.4199C29.627 82.4199 29.8516 82.3242 30.0195 82.1328C30.1875 81.9375 30.2715 81.6738 30.2715 81.3418V80.9082C30.2715 80.5996 30.1855 80.3477 30.0137 80.1523C29.8457 79.957 29.6191 79.8594 29.334 79.8594C29.0566 79.8594 28.8301 79.957 28.6543 80.1523C28.4824 80.3438 28.3965 80.6035 28.3965 80.9316V81.3652ZM25.4375 82.3555L24.8223 81.9688L28.9883 75.3008L29.6035 75.6875L25.4375 82.3555Z" fill="black"/>
<path d="M37.4141 80.3105L37.5781 81.4355L37.8184 80.4219L39.5059 74.4688H40.4551L42.1016 80.4219L42.3359 81.4531L42.5176 80.3047L43.8418 74.4688H44.9727L42.9043 83H41.8789L40.1211 76.7832L39.9863 76.1328L39.8516 76.7832L38.0293 83H37.0039L34.9414 74.4688H36.0664L37.4141 80.3105Z" fill="black"/>
<path d="M51.0488 79.0566H47.3516V82.0801H51.6465V83H46.2266V74.4688H51.5879V75.3945H47.3516V78.1367H51.0488V79.0566Z" fill="black"/>
<path d="M57.8691 79.0566H54.1719V82.0801H58.4668V83H53.0469V74.4688H58.4082V75.3945H54.1719V78.1367H57.8691V79.0566Z" fill="black"/>
<path d="M62.0352 79.0332L60.9922 80.1172V83H59.8672V74.4688H60.9922V78.6875L64.7832 74.4688H66.1426L62.7852 78.2363L66.4062 83H65.0586L62.0352 79.0332Z" fill="black"/>
<path d="M68.5215 82.0801H72.5645V83H67.3906V74.4688H68.5215V82.0801Z" fill="black"/>
<path d="M75.043 78.752L77.2695 74.4688H78.5469L75.6055 79.8184V83H74.4805V79.8184L71.5391 74.4688H72.8281L75.043 78.752Z" fill="black"/>
<path d="M20.3164 93.293C20.2109 94.1953 19.877 94.8926 19.3145 95.3848C18.7559 95.873 18.0117 96.1172 17.082 96.1172C16.0742 96.1172 15.2656 95.7559 14.6562 95.0332C14.0508 94.3105 13.748 93.3438 13.748 92.1328V91.3125C13.748 90.5195 13.8887 89.8223 14.1699 89.2207C14.4551 88.6191 14.8574 88.1582 15.377 87.8379C15.8965 87.5137 16.498 87.3516 17.1816 87.3516C18.0879 87.3516 18.8145 87.6055 19.3613 88.1133C19.9082 88.6172 20.2266 89.3164 20.3164 90.2109H19.1855C19.0879 89.5312 18.875 89.0391 18.5469 88.7344C18.2227 88.4297 17.7676 88.2773 17.1816 88.2773C16.4629 88.2773 15.8984 88.543 15.4883 89.0742C15.082 89.6055 14.8789 90.3613 14.8789 91.3418V92.168C14.8789 93.0938 15.0723 93.8301 15.459 94.377C15.8457 94.9238 16.3867 95.1973 17.082 95.1973C17.707 95.1973 18.1855 95.0566 18.5176 94.7754C18.8535 94.4902 19.0762 93.9961 19.1855 93.293H20.3164Z" fill="black"/>
<path d="M26.5684 93.7734H22.9941L22.1914 96H21.0312L24.2891 87.4688H25.2734L28.5371 96H27.3828L26.5684 93.7734ZM23.334 92.8477H26.2344L24.7812 88.8574L23.334 92.8477Z" fill="black"/>
<path d="M32.1992 92.1973C31.2344 91.9199 30.5312 91.5801 30.0898 91.1777C29.6523 90.7715 29.4336 90.2715 29.4336 89.6777C29.4336 89.0059 29.7012 88.4512 30.2363 88.0137C30.7754 87.5723 31.4746 87.3516 32.334 87.3516C32.9199 87.3516 33.4414 87.4648 33.8984 87.6914C34.3594 87.918 34.7148 88.2305 34.9648 88.6289C35.2188 89.0273 35.3457 89.4629 35.3457 89.9355H34.2148C34.2148 89.4199 34.0508 89.0156 33.7227 88.7227C33.3945 88.4258 32.9316 88.2773 32.334 88.2773C31.7793 88.2773 31.3457 88.4004 31.0332 88.6465C30.7246 88.8887 30.5703 89.2266 30.5703 89.6602C30.5703 90.0078 30.7168 90.3027 31.0098 90.5449C31.3066 90.7832 31.8086 91.002 32.5156 91.2012C33.2266 91.4004 33.7812 91.6211 34.1797 91.8633C34.582 92.1016 34.8789 92.3809 35.0703 92.7012C35.2656 93.0215 35.3633 93.3984 35.3633 93.832C35.3633 94.5234 35.0938 95.0781 34.5547 95.4961C34.0156 95.9102 33.2949 96.1172 32.3926 96.1172C31.8066 96.1172 31.2598 96.0059 30.752 95.7832C30.2441 95.5566 29.8516 95.248 29.5742 94.8574C29.3008 94.4668 29.1641 94.0234 29.1641 93.5273H30.2949C30.2949 94.043 30.4844 94.4512 30.8633 94.752C31.2461 95.0488 31.7559 95.1973 32.3926 95.1973C32.9863 95.1973 33.4414 95.0762 33.7578 94.834C34.0742 94.5918 34.2324 94.2617 34.2324 93.8438C34.2324 93.4258 34.0859 93.1035 33.793 92.877C33.5 92.6465 32.9688 92.4199 32.1992 92.1973Z" fill="black"/>
<path d="M43.3672 96H42.2363V92.0566H37.9355V96H36.8105V87.4688H37.9355V91.1367H42.2363V87.4688H43.3672V96Z" fill="black"/>
<path d="M45.3652 96V87.4688H48.1543C49.0801 87.4688 49.7754 87.6602 50.2402 88.043C50.709 88.4258 50.9434 88.9922 50.9434 89.7422C50.9434 90.1406 50.8301 90.4941 50.6035 90.8027C50.377 91.1074 50.0684 91.3438 49.6777 91.5117C50.1387 91.6406 50.502 91.8867 50.7676 92.25C51.0371 92.6094 51.1719 93.0391 51.1719 93.5391C51.1719 94.3047 50.9238 94.9062 50.4277 95.3438C49.9316 95.7812 49.2305 96 48.3242 96H45.3652ZM46.4902 92.0098V95.0801H48.3477C48.8711 95.0801 49.2832 94.9453 49.584 94.6758C49.8887 94.4023 50.041 94.0273 50.041 93.5508C50.041 92.5234 49.4824 92.0098 48.3652 92.0098H46.4902ZM46.4902 91.1074H48.1895C48.6816 91.1074 49.0742 90.9844 49.3672 90.7383C49.6641 90.4922 49.8125 90.1582 49.8125 89.7363C49.8125 89.2676 49.6758 88.9277 49.4023 88.7168C49.1289 88.502 48.7129 88.3945 48.1543 88.3945H46.4902V91.1074Z" fill="black"/>
<path d="M57.5527 93.7734H53.9785L53.1758 96H52.0156L55.2734 87.4688H56.2578L59.5215 96H58.3672L57.5527 93.7734ZM54.3184 92.8477H57.2188L55.7656 88.8574L54.3184 92.8477Z" fill="black"/>
<path d="M66.875 93.293C66.7695 94.1953 66.4355 94.8926 65.873 95.3848C65.3145 95.873 64.5703 96.1172 63.6406 96.1172C62.6328 96.1172 61.8242 95.7559 61.2148 95.0332C60.6094 94.3105 60.3066 93.3438 60.3066 92.1328V91.3125C60.3066 90.5195 60.4473 89.8223 60.7285 89.2207C61.0137 88.6191 61.416 88.1582 61.9355 87.8379C62.4551 87.5137 63.0566 87.3516 63.7402 87.3516C64.6465 87.3516 65.373 87.6055 65.9199 88.1133C66.4668 88.6172 66.7852 89.3164 66.875 90.2109H65.7441C65.6465 89.5312 65.4336 89.0391 65.1055 88.7344C64.7812 88.4297 64.3262 88.2773 63.7402 88.2773C63.0215 88.2773 62.457 88.543 62.0469 89.0742C61.6406 89.6055 61.4375 90.3613 61.4375 91.3418V92.168C61.4375 93.0938 61.6309 93.8301 62.0176 94.377C62.4043 94.9238 62.9453 95.1973 63.6406 95.1973C64.2656 95.1973 64.7441 95.0566 65.0762 94.7754C65.4121 94.4902 65.6348 93.9961 65.7441 93.293H66.875Z" fill="black"/>
<path d="M70.584 92.0332L69.541 93.1172V96H68.416V87.4688H69.541V91.6875L73.332 87.4688H74.6914L71.334 91.2363L74.9551 96H73.6074L70.584 92.0332Z" fill="black"/>
<defs>
<clipPath id="clip0_296_8137">
<rect width="54" height="52" fill="white" transform="translate(17 10)"/>
</clipPath>
</defs>
</svg>
